  0
SECTION
  2
HEADER
  9
$ACADVER
  1
AC1032
  9
$ACADMAINTVER
 90
      329
  9
$DWGCODEPAGE
  3
ANSI_936
  9
$REQUIREDVERSIONS
160
                 0
  9
$INSBASE
 10
0.0
 20
0.0
 30
0.0
  9
$EXTMIN
 10
1.000000000000000E+20
 20
1.000000000000000E+20
 30
1.000000000000000E+20
  9
$EXTMAX
 10
-1.000000000000000E+20
 20
-1.000000000000000E+20
 30
-1.000000000000000E+20
  9
$LIMMIN
 10
0.0
 20
0.0
  9
$LIMMAX
 10
12.0
 20
9.0
  9
$ORTHOMODE
 70
     0
  9
$REGENMODE
 70
     1
  9
$FILLMODE
 70
     1
  9
$QTEXTMODE
 70
     0
  9
$MIRRTEXT
 70
     0
  9
$LTSCALE
 40
1.0
  9
$ATTMODE
 70
     1
  9
$TEXTSIZE
 40
0.2
  9
$TRACEWID
 40
0.05
  9
$TEXTSTYLE
  7
Standard
  9
$CLAYER
  8
0
  9
$CELTYPE
  6
ByLayer
  9
$CECOLOR
 62
   256
  9
$CELTSCALE
 40
1.0
  9
$DISPSILH
 70
     0
  9
$DIMSCALE
 40
1.0
  9
$DIMASZ
 40
0.18
  9
$DIMEXO
 40
0.0625
  9
$DIMDLI
 40
0.38
  9
$DIMRND
 40
0.0
  9
$DIMDLE
 40
0.0
  9
$DIMEXE
 40
0.18
  9
$DIMTP
 40
0.0
  9
$DIMTM
 40
0.0
  9
$DIMTXT
 40
0.18
  9
$DIMCEN
 40
0.09
  9
$DIMTSZ
 40
0.0
  9
$DIMTOL
 70
     0
  9
$DIMLIM
 70
     0
  9
$DIMTIH
 70
     1
  9
$DIMTOH
 70
     1
  9
$DIMSE1
 70
     0
  9
$DIMSE2
 70
     0
  9
$DIMTAD
 70
     0
  9
$DIMZIN
 70
     0
  9
$DIMBLK
  1

  9
$DIMASO
 70
     1
  9
$DIMSHO
 70
     1
  9
$DIMPOST
  1

  9
$DIMAPOST
  1

  9
$DIMALT
 70
     0
  9
$DIMALTD
 70
     2
  9
$DIMALTF
 40
25.4
  9
$DIMLFAC
 40
1.0
  9
$DIMTOFL
 70
     0
  9
$DIMTVP
 40
0.0
  9
$DIMTIX
 70
     0
  9
$DIMSOXD
 70
     0
  9
$DIMSAH
 70
     0
  9
$DIMBLK1
  1

  9
$DIMBLK2
  1

  9
$DIMSTYLE
  2
Standard
  9
$DIMCLRD
 70
     0
  9
$DIMCLRE
 70
     0
  9
$DIMCLRT
 70
     0
  9
$DIMTFAC
 40
1.0
  9
$DIMGAP
 40
0.09
  9
$DIMJUST
 70
     0
  9
$DIMSD1
 70
     0
  9
$DIMSD2
 70
     0
  9
$DIMTOLJ
 70
     1
  9
$DIMTZIN
 70
     0
  9
$DIMALTZ
 70
     0
  9
$DIMALTTZ
 70
     0
  9
$DIMUPT
 70
     0
  9
$DIMDEC
 70
     4
  9
$DIMTDEC
 70
     4
  9
$DIMALTU
 70
     2
  9
$DIMALTTD
 70
     2
  9
$DIMTXSTY
  7
Standard
  9
$DIMAUNIT
 70
     0
  9
$DIMADEC
 70
     0
  9
$DIMALTRND
 40
0.0
  9
$DIMAZIN
 70
     0
  9
$DIMDSEP
 70
    46
  9
$DIMATFIT
 70
     3
  9
$DIMFRAC
 70
     0
  9
$DIMLDRBLK
  1

  9
$DIMLUNIT
 70
     2
  9
$DIMLWD
 70
    -2
  9
$DIMLWE
 70
    -2
  9
$DIMTMOVE
 70
     0
  9
$DIMFXL
 40
1.0
  9
$DIMFXLON
 70
     0
  9
$DIMJOGANG
 40
0.7853981633974483
  9
$DIMTFILL
 70
     0
  9
$DIMTFILLCLR
 70
     0
  9
$DIMARCSYM
 70
     0
  9
$DIMLTYPE
  6

  9
$DIMLTEX1
  6

  9
$DIMLTEX2
  6

  9
$DIMTXTDIRECTION
 70
     0
  9
$LUNITS
 70
     2
  9
$LUPREC
 70
     4
  9
$SKETCHINC
 40
0.1
  9
$FILLETRAD
 40
0.0
  9
$AUNITS
 70
     0
  9
$AUPREC
 70
     0
  9
$MENU
  1
.
  9
$ELEVATION
 40
0.0
  9
$PELEVATION
 40
0.0
  9
$THICKNESS
 40
0.0
  9
$LIMCHECK
 70
     0
  9
$CHAMFERA
 40
0.0
  9
$CHAMFERB
 40
0.0
  9
$CHAMFERC
 40
0.0
  9
$CHAMFERD
 40
0.0
  9
$SKPOLY
 70
     0
  9
$TDCREATE
 40
2461204.468784722
  9
$TDUCREATE
 40
2461204.135451389
  9
$TDUPDATE
 40
2461204.468784722
  9
$TDUUPDATE
 40
2461204.135451389
  9
$TDINDWG
 40
0.0000000000
  9
$TDUSRTIMER
 40
0.0000000000
  9
$USRTIMER
 70
     1
  9
$ANGBASE
 50
0.0
  9
$ANGDIR
 70
     0
  9
$PDMODE
 70
     0
  9
$PDSIZE
 40
0.0
  9
$PLINEWID
 40
0.0
  9
$SPLFRAME
 70
     0
  9
$SPLINETYPE
 70
     6
  9
$SPLINESEGS
 70
     8
  9
$HANDSEED
  5
A9
  9
$SURFTAB1
 70
     6
  9
$SURFTAB2
 70
     6
  9
$SURFTYPE
 70
     6
  9
$SURFU
 70
     6
  9
$SURFV
 70
     6
  9
$UCSBASE
  2

  9
$UCSNAME
  2

  9
$UCSORG
 10
0.0
 20
0.0
 30
0.0
  9
$UCSXDIR
 10
1.0
 20
0.0
 30
0.0
  9
$UCSYDIR
 10
0.0
 20
1.0
 30
0.0
  9
$UCSORTHOREF
  2

  9
$UCSORTHOVIEW
 70
     0
  9
$UCSORGTOP
 10
0.0
 20
0.0
 30
0.0
  9
$UCSORGBOTTOM
 10
0.0
 20
0.0
 30
0.0
  9
$UCSORGLEFT
 10
0.0
 20
0.0
 30
0.0
  9
$UCSORGRIGHT
 10
0.0
 20
0.0
 30
0.0
  9
$UCSORGFRONT
 10
0.0
 20
0.0
 30
0.0
  9
$UCSORGBACK
 10
0.0
 20
0.0
 30
0.0
  9
$PUCSBASE
  2

  9
$PUCSNAME
  2

  9
$PUCSORG
 10
0.0
 20
0.0
 30
0.0
  9
$PUCSXDIR
 10
1.0
 20
0.0
 30
0.0
  9
$PUCSYDIR
 10
0.0
 20
1.0
 30
0.0
  9
$PUCSORTHOREF
  2

  9
$PUCSORTHOVIEW
 70
     0
  9
$PUCSORGTOP
 10
0.0
 20
0.0
 30
0.0
  9
$PUCSORGBOTTOM
 10
0.0
 20
0.0
 30
0.0
  9
$PUCSORGLEFT
 10
0.0
 20
0.0
 30
0.0
  9
$PUCSORGRIGHT
 10
0.0
 20
0.0
 30
0.0
  9
$PUCSORGFRONT
 10
0.0
 20
0.0
 30
0.0
  9
$PUCSORGBACK
 10
0.0
 20
0.0
 30
0.0
  9
$USERI1
 70
     0
  9
$USERI2
 70
     0
  9
$USERI3
 70
     0
  9
$USERI4
 70
     0
  9
$USERI5
 70
     0
  9
$USERR1
 40
0.0
  9
$USERR2
 40
0.0
  9
$USERR3
 40
0.0
  9
$USERR4
 40
0.0
  9
$USERR5
 40
0.0
  9
$WORLDVIEW
 70
     1
  9
$SHADEDGE
 70
     3
  9
$SHADEDIF
 70
    70
  9
$TILEMODE
 70
     1
  9
$MAXACTVP
 70
    64
  9
$PINSBASE
 10
0.0
 20
0.0
 30
0.0
  9
$PLIMCHECK
 70
     0
  9
$PEXTMIN
 10
1.000000000000000E+20
 20
1.000000000000000E+20
 30
1.000000000000000E+20
  9
$PEXTMAX
 10
-1.000000000000000E+20
 20
-1.000000000000000E+20
 30
-1.000000000000000E+20
  9
$PLIMMIN
 10
0.0
 20
0.0
  9
$PLIMMAX
 10
12.0
 20
9.0
  9
$UNITMODE
 70
     0
  9
$VISRETAIN
 70
     1
  9
$PLINEGEN
 70
     0
  9
$PSLTSCALE
 70
     1
  9
$TREEDEPTH
 70
  3020
  9
$CMLSTYLE
  2
Standard
  9
$CMLJUST
 70
     0
  9
$CMLSCALE
 40
1.0
  9
$PROXYGRAPHICS
 70
     1
  9
$MEASUREMENT
 70
     0
  9
$CELWEIGHT
370
    -1
  9
$ENDCAPS
280
     0
  9
$JOINSTYLE
280
     0
  9
$LWDISPLAY
290
     1
  9
$INSUNITS
 70
     4
  9
$HYPERLINKBASE
  1

  9
$STYLESHEET
  1

  9
$XEDIT
290
     1
  9
$CEPSNTYPE
380
     0
  9
$PSTYLEMODE
290
     1
  9
$FINGERPRINTGUID
  2
{8009F8FE-4D15-1149-99F4-0D1154FD761D}
  9
$VERSIONGUID
  2
{76DCF017-3576-6646-87C9-E6DC42AC6BD8}
  9
$EXTNAMES
290
     1
  9
$PSVPSCALE
 40
0.0
  9
$OLESTARTUP
290
     0
  9
$SORTENTS
280
   127
  9
$INDEXCTL
280
     0
  9
$HIDETEXT
280
     1
  9
$XCLIPFRAME
280
     2
  9
$HALOGAP
280
     0
  9
$OBSCOLOR
 70
   257
  9
$OBSLTYPE
280
     0
  9
$INTERSECTIONDISPLAY
280
     0
  9
$INTERSECTIONCOLOR
 70
   257
  9
$DIMASSOC
280
     2
  9
$PROJECTNAME
  1

  9
$CAMERADISPLAY
290
     0
  9
$LENSLENGTH
 40
50.0
  9
$CAMERAHEIGHT
 40
0.0
  9
$STEPSPERSEC
 40
2.0
  9
$STEPSIZE
 40
6.0
  9
$3DDWFPREC
 40
2.0
  9
$PSOLWIDTH
 40
0.25
  9
$PSOLHEIGHT
 40
4.0
  9
$LOFTANG1
 40
1.570796326794896
  9
$LOFTANG2
 40
1.570796326794896
  9
$LOFTMAG1
 40
0.0
  9
$LOFTMAG2
 40
0.0
  9
$LOFTPARAM
 70
     7
  9
$LOFTNORMALS
280
     1
  9
$LATITUDE
 40
37.795
  9
$LONGITUDE
 40
-122.394
  9
$NORTHDIRECTION
 40
0.0
  9
$TIMEZONE
 70
 -8000
  9
$LIGHTGLYPHDISPLAY
280
     1
  9
$TILEMODELIGHTSYNCH
280
     1
  9
$CMATERIAL
347
11
  9
$SOLIDHIST
280
     0
  9
$SHOWHIST
280
     1
  9
$DWFFRAME
280
     2
  9
$DGNFRAME
280
     0
  9
$REALWORLDSCALE
290
     1
  9
$INTERFERECOLOR
 62
     1
  9
$INTERFEREOBJVS
345
33
  9
$INTERFEREVPVS
346
30
  9
$CSHADOW
280
     0
  9
$SHADOWPLANELOCATION
 40
0.0
  0
ENDSEC
  0
SECTION
  2
CLASSES
  0
CLASS
  1
ACDBDICTIONARYWDFLT
  2
AcDbDictionaryWithDefault
  3
ObjectDBX Classes
 90
        0
 91
        1
280
     0
281
     0
  0
CLASS
  1
MATERIAL
  2
AcDbMaterial
  3
ObjectDBX Classes
 90
     1153
 91
        3
280
     0
281
     0
  0
CLASS
  1
VISUALSTYLE
  2
AcDbVisualStyle
  3
ObjectDBX Classes
 90
     4095
 91
       24
280
     0
281
     0
  0
CLASS
  1
SCALE
  2
AcDbScale
  3
ObjectDBX Classes
 90
     1153
 91
       17
280
     0
281
     0
  0
CLASS
  1
TABLESTYLE
  2
AcDbTableStyle
  3
ObjectDBX Classes
 90
     4095
 91
        1
280
     0
281
     0
  0
CLASS
  1
MLEADERSTYLE
  2
AcDbMLeaderStyle
  3
ACDB_MLEADERSTYLE_CLASS
 90
     4095
 91
        1
280
     0
281
     0
  0
CLASS
  1
ACDBSECTIONVIEWSTYLE
  2
AcDbSectionViewStyle
  3
ObjectDBX Classes
 90
     1025
 91
        1
280
     0
281
     0
  0
CLASS
  1
ACDBDETAILVIEWSTYLE
  2
AcDbDetailViewStyle
  3
ObjectDBX Classes
 90
     1025
 91
        1
280
     0
281
     0
  0
CLASS
  1
DICTIONARYVAR
  2
AcDbDictionaryVar
  3
ObjectDBX Classes
 90
        0
 91
        5
280
     0
281
     0
  0
CLASS
  1
CELLSTYLEMAP
  2
AcDbCellStyleMap
  3
ObjectDBX Classes
 90
     1152
 91
        1
280
     0
281
     0
  0
ENDSEC
  0
SECTION
  2
TABLES
  0
TABLE
  2
VPORT
  5
8
330
0
100
AcDbSymbolTable
 70
     1
  0
VPORT
  5
57
330
8
100
AcDbSymbolTableRecord
100
AcDbViewportTableRecord
  2
*Active
 70
     0
 10
0.0
 20
0.0
 11
1.0
 21
1.0
 12
0.0
 22
0.0
 13
0.0
 23
0.0
 14
1.0
 24
1.0
 15
0.0
 25
0.0
 16
0.0
 26
0.0
 36
1.0
 17
104.7749999738062
 27
148.5194444073146
 37
0.0
 40
198.627999950343
 41
1.304347826086956
 42
50.0
 43
0.0
 44
0.0
 50
0.0
 51
0.0
 71
     0
 72
   100
 73
     1
 74
     1
 75
     0
 76
     0
 77
     0
 78
     0
281
     0
 65
     1
110
0.0
120
0.0
130
0.0
111
1.0
121
0.0
131
0.0
112
0.0
122
1.0
132
0.0
 79
     0
146
0.0
 60
     3
 61
     5
292
     1
282
     1
141
0.0
142
0.0
 63
   250
421
  3355443
  0
ENDTAB
  0
TABLE
  2
LTYPE
  5
5
330
0
100
AcDbSymbolTable
 70
     1
  0
LTYPE
  5
5B
330
5
100
AcDbSymbolTableRecord
100
AcDbLinetypeTableRecord
  2
ByBlock
 70
     0
  3

 72
    65
 73
     0
 40
0.0
  0
LTYPE
  5
5C
330
5
100
AcDbSymbolTableRecord
100
AcDbLinetypeTableRecord
  2
ByLayer
 70
     0
  3

 72
    65
 73
     0
 40
0.0
  0
LTYPE
  5
5D
330
5
100
AcDbSymbolTableRecord
100
AcDbLinetypeTableRecord
  2
Continuous
 70
     0
  3
Solid line
 72
    65
 73
     0
 40
0.0
  0
ENDTAB
  0
TABLE
  2
LAYER
  5
2
330
0
100
AcDbSymbolTable
 70
     2
  0
LAYER
  5
54
330
2
100
AcDbSymbolTableRecord
100
AcDbLayerTableRecord
  2
0
 70
     0
 62
     7
  6
Continuous
370
    -3
390
F
347
21
348
0
  0
LAYER
  5
78
330
2
100
AcDbSymbolTableRecord
100
AcDbLayerTableRecord
  2
图层 1
 70
     0
 62
     7
  6
Continuous
370
     0
390
F
347
21
348
0
  0
ENDTAB
  0
TABLE
  2
STYLE
  5
3
330
0
100
AcDbSymbolTable
 70
     2
  0
STYLE
  5
55
330
3
100
AcDbSymbolTableRecord
100
AcDbTextStyleTableRecord
  2
Standard
 70
     0
 40
0.0
 41
1.0
 50
0.0
 71
     0
 42
0.2
  3
txt
  4

  0
STYLE
  5
5A
330
3
100
AcDbSymbolTableRecord
100
AcDbTextStyleTableRecord
  2
Annotative
 70
     0
 40
0.0
 41
1.0
 50
0.0
 71
     0
 42
0.2
  3
txt
  4

1001
AcadAnnotative
1000
AnnotativeData
1002
{
1070
     1
1070
     1
1002
}
  0
ENDTAB
  0
TABLE
  2
VIEW
  5
6
330
0
100
AcDbSymbolTable
 70
     0
  0
ENDTAB
  0
TABLE
  2
UCS
  5
7
330
0
100
AcDbSymbolTable
 70
     0
  0
ENDTAB
  0
TABLE
  2
APPID
  5
9
330
0
100
AcDbSymbolTable
 70
     2
  0
APPID
  5
56
330
9
100
AcDbSymbolTableRecord
100
AcDbRegAppTableRecord
  2
ACAD
 70
     0
  0
APPID
  5
5E
330
9
100
AcDbSymbolTableRecord
100
AcDbRegAppTableRecord
  2
AcadAnnotative
 70
     0
  0
ENDTAB
  0
TABLE
  2
DIMSTYLE
  5
A
330
0
100
AcDbSymbolTable
 70
     2
100
AcDbDimStyleTable
 71
     0
  0
DIMSTYLE
105
58
330
A
100
AcDbSymbolTableRecord
100
AcDbDimStyleTableRecord
  2
Standard
 70
     0
340
55
  0
DIMSTYLE
105
59
330
A
100
AcDbSymbolTableRecord
100
AcDbDimStyleTableRecord
  2
Annotative
 70
     0
340
55
1001
AcadAnnotative
1000
AnnotativeData
1002
{
1070
     1
1070
     1
1002
}
  0
ENDTAB
  0
TABLE
  2
BLOCK_RECORD
  5
1
330
0
100
AcDbSymbolTable
 70
     2
  0
BLOCK_RECORD
  5
70
330
1
100
AcDbSymbolTableRecord
100
AcDbBlockTableRecord
  2
*Model_Space
340
73
 70
     0
280
     1
281
     0
  0
BLOCK_RECORD
  5
6C
330
1
100
AcDbSymbolTableRecord
100
AcDbBlockTableRecord
  2
*Paper_Space
340
6F
 70
     0
280
     1
281
     0
  0
BLOCK_RECORD
  5
74
330
1
100
AcDbSymbolTableRecord
100
AcDbBlockTableRecord
  2
*Paper_Space0
340
77
 70
     0
280
     1
281
     0
  0
BLOCK_RECORD
  5
79
330
1
100
AcDbSymbolTableRecord
100
AcDbBlockTableRecord
  2
Block_0
340
0
102
{BLKREFS
331
7A
102
}
 70
     0
280
     1
281
     0
  0
ENDTAB
  0
ENDSEC
  0
SECTION
  2
BLOCKS
  0
BLOCK
  5
71
330
70
100
AcDbEntity
  8
0
100
AcDbBlockBegin
  2
*Model_Space
 70
     0
 10
0.0
 20
0.0
 30
0.0
  3
*Model_Space
  1

  0
ENDBLK
  5
72
330
70
100
AcDbEntity
  8
0
100
AcDbBlockEnd
  0
BLOCK
  5
6D
330
6C
100
AcDbEntity
 67
     1
  8
0
100
AcDbBlockBegin
  2
*Paper_Space
 70
     0
 10
0.0
 20
0.0
 30
0.0
  3
*Paper_Space
  1

  0
ENDBLK
  5
6E
330
6C
100
AcDbEntity
 67
     1
  8
0
100
AcDbBlockEnd
  0
BLOCK
  5
75
330
74
100
AcDbEntity
 67
     1
  8
0
100
AcDbBlockBegin
  2
*Paper_Space0
 70
     0
 10
0.0
 20
0.0
 30
0.0
  3
*Paper_Space0
  1

  0
ENDBLK
  5
76
330
74
100
AcDbEntity
 67
     1
  8
0
100
AcDbBlockEnd
  0
BLOCK
  5
7B
330
79
100
AcDbEntity
  8
0
100
AcDbBlockBegin
  2
Block_0
 70
     0
 10
0.0
 20
0.0
 30
0.0
  3
Block_0
  1

  0
LWPOLYLINE
  5
7D
330
79
100
AcDbEntity
  8
图层 1
100
AcDbPolyline
 90
        4
 70
     1
 43
0.0
 10
-21.69583332790938
 20
245.8861110496396
 10
-21.69583332790938
 20
51.15277776498959
 10
-22.22499999444375
 20
51.15277776498959
 10
-22.22499999444375
 20
245.8861110496396
  0
HATCH
  5
7E
330
79
100
AcDbEntity
  8
图层 1
 62
    18
420
        0
440
 33554687
100
AcDbHatch
 10
0.0
 20
0.0
 30
0.0
210
0.0
220
0.0
230
1.0
  2
SOLID
 70
     1
 71
     1
 91
        1
 92
        1
 93
        4
 72
     1
 10
-21.69583332790938
 20
245.8861110496396
 11
-21.69583332790938
 21
51.1527777649896
 72
     1
 10
-21.69583332790938
 20
51.15277776498959
 11
-22.22499999444375
 21
51.15277776498959
 72
     1
 10
-22.22499999444375
 20
51.15277776498959
 11
-22.22499999444375
 21
245.8861110496396
 72
     1
 10
-22.22499999444375
 20
245.8861110496396
 11
-21.69583332790938
 21
245.8861110496396
 97
        1
330
7D
 75
     2
 76
     1
 98
        1
 10
0.0
 20
0.0
450
        0
451
        0
460
0.0
461
0.0
452
        0
462
0.0
453
        0
470

  0
LWPOLYLINE
  5
7F
330
79
100
AcDbEntity
  8
图层 1
100
AcDbPolyline
 90
        4
 70
     1
 43
0.0
 10
231.2458332755219
 20
245.8861110496396
 10
231.7749999420563
 20
245.8861110496396
 10
231.7749999420563
 20
51.15277776498959
 10
231.2458332755219
 20
51.15277776498959
  0
HATCH
  5
80
330
79
100
AcDbEntity
  8
图层 1
 62
    18
420
        0
440
 33554687
100
AcDbHatch
 10
0.0
 20
0.0
 30
0.0
210
0.0
220
0.0
230
1.0
  2
SOLID
 70
     1
 71
     1
 91
        1
 92
        1
 93
        4
 72
     1
 10
231.2458332755219
 20
245.8861110496396
 11
231.7749999420563
 21
245.8861110496396
 72
     1
 10
231.7749999420563
 20
245.8861110496396
 11
231.7749999420563
 21
51.1527777649896
 72
     1
 10
231.7749999420563
 20
51.15277776498959
 11
231.2458332755219
 21
51.15277776498959
 72
     1
 10
231.2458332755219
 20
51.15277776498959
 11
231.2458332755219
 21
245.8861110496396
 97
        1
330
7F
 75
     2
 76
     1
 98
        1
 10
0.0
 20
0.0
450
        0
451
        0
460
0.0
461
0.0
452
        0
462
0.0
453
        0
470

  0
SPLINE
  5
81
330
79
100
AcDbEntity
  8
图层 1
100
AcDbSpline
210
0.0
220
0.0
230
1.0
 70
    11
 71
     3
 72
    35
 73
    31
 74
     0
 42
0.0000000001
 43
0.0000000001
 40
0.0
 40
0.0
 40
0.0
 40
0.0
 40
1.0
 40
1.0
 40
1.0
 40
2.0
 40
2.0
 40
2.0
 40
3.0
 40
3.0
 40
3.0
 40
4.0
 40
4.0
 40
4.0
 40
5.0
 40
5.0
 40
5.0
 40
6.0
 40
6.0
 40
6.0
 40
7.0
 40
7.0
 40
7.0
 40
8.0
 40
8.0
 40
8.0
 40
9.0
 40
9.0
 40
9.0
 40
10.0
 40
10.0
 40
10.0
 40
10.0
 10
129.3812499676547
 20
242.9756943837005
 30
0.0
 10
129.3812499676547
 20
242.9756943837005
 30
0.0
 10
95.77916664272187
 20
187.1486110643239
 30
0.0
 10
95.77916664272187
 20
187.1486110643239
 30
0.0
 10
95.77916664272187
 20
187.1486110643239
 30
0.0
 10
126.8677083016164
 20
187.1486110643239
 30
0.0
 10
126.8677083016164
 20
187.1486110643239
 30
0.0
 10
126.9003570833059
 20
187.1486110643239
 30
0.0
 10
127.3834928445757
 20
186.7719068973573
 30
0.0
 10
127.1504114360444
 20
186.6094925111707
 30
0.0
 10
123.9702420281871
 20
182.0739526032255
 30
0.0
 10
121.4176948326144
 20
176.9969707243415
 30
0.0
 10
118.0854215923654
 20
172.6475644460625
 30
0.0
 10
118.0854215923654
 20
172.6475644460625
 30
0.0
 10
86.77940395971502
 20
172.4681654199175
 30
0.0
 10
86.77940395971502
 20
172.4681654199175
 30
0.0
 10
86.77940395971502
 20
172.4681654199175
 30
0.0
 10
61.5156249846211
 20
131.0569444116802
 30
0.0
 10
61.5156249846211
 20
131.0569444116802
 30
0.0
 10
61.5156249846211
 20
131.0569444116802
 30
0.0
 10
15.47812499613047
 20
131.0569444116802
 30
0.0
 10
15.47812499613047
 20
131.0569444116802
 30
0.0
 10
15.37687316980606
 20
131.0569444116802
 30
0.0
 10
15.23366497498941
 20
130.5325539472354
 30
0.0
 10
14.8231631431213
 20
131.1873597924167
 30
0.0
 10
14.8231631431213
 20
131.1873597924167
 30
0.0
 10
82.94687497926329
 20
242.9756943837005
 30
0.0
 10
82.94687497926329
 20
242.9756943837005
 30
0.0
 10
82.94687497926329
 20
242.9756943837005
 30
0.0
 10
129.3812499676547
 20
242.9756943837005
 30
0.0
 10
129.3812499676547
 20
242.9756943837005
 30
0.0
  0
HATCH
  5
82
330
79
100
AcDbEntity
  8
图层 1
 62
    18
420
        0
440
 33554687
100
AcDbHatch
 10
0.0
 20
0.0
 30
0.0
210
0.0
220
0.0
230
1.0
  2
SOLID
 70
     1
 71
     1
 91
        1
 92
        1
 93
        1
 72
     4
 94
        3
 73
     0
 74
     0
 95
       35
 96
       31
 40
0.0
 40
0.0
 40
0.0
 40
0.0
 40
1.0
 40
1.0
 40
1.0
 40
2.0
 40
2.0
 40
2.0
 40
3.0
 40
3.0
 40
3.0
 40
4.0
 40
4.0
 40
4.0
 40
5.0
 40
5.0
 40
5.0
 40
6.0
 40
6.0
 40
6.0
 40
7.0
 40
7.0
 40
7.0
 40
8.0
 40
8.0
 40
8.0
 40
9.0
 40
9.0
 40
9.0
 40
10.0
 40
10.0
 40
10.0
 40
10.0
 10
129.3812499676547
 20
242.9756943837005
 10
129.3812499676547
 20
242.9756943837005
 10
95.77916664272187
 20
187.1486110643239
 10
95.77916664272187
 20
187.1486110643239
 10
95.77916664272187
 20
187.1486110643239
 10
126.8677083016164
 20
187.1486110643239
 10
126.8677083016164
 20
187.1486110643239
 10
126.9003570833059
 20
187.1486110643239
 10
127.3834928445757
 20
186.7719068973573
 10
127.1504114360444
 20
186.6094925111707
 10
123.9702420281871
 20
182.0739526032255
 10
121.4176948326144
 20
176.9969707243415
 10
118.0854215923654
 20
172.6475644460625
 10
118.0854215923654
 20
172.6475644460625
 10
86.77940395971502
 20
172.4681654199175
 10
86.77940395971502
 20
172.4681654199175
 10
86.77940395971502
 20
172.4681654199175
 10
61.5156249846211
 20
131.0569444116802
 10
61.5156249846211
 20
131.0569444116802
 10
61.5156249846211
 20
131.0569444116802
 10
15.47812499613047
 20
131.0569444116802
 10
15.47812499613047
 20
131.0569444116802
 10
15.37687316980606
 20
131.0569444116802
 10
15.23366497498941
 20
130.5325539472354
 10
14.8231631431213
 20
131.1873597924167
 10
14.8231631431213
 20
131.1873597924167
 10
82.94687497926329
 20
242.9756943837005
 10
82.94687497926329
 20
242.9756943837005
 10
82.94687497926329
 20
242.9756943837005
 10
129.3812499676547
 20
242.9756943837005
 10
129.3812499676547
 20
242.9756943837005
 97
        0
 97
        1
330
81
 75
     2
 76
     1
 98
        1
 10
0.0
 20
0.0
450
        0
451
        0
460
0.0
461
0.0
452
        0
462
0.0
453
        0
470

  0
SPLINE
  5
83
330
79
100
AcDbEntity
  8
图层 1
100
AcDbSpline
210
0.0
220
0.0
230
1.0
 70
     9
 71
     3
 72
   116
 73
   112
 74
     0
 42
0.0000000001
 43
0.0000000001
 40
0.0
 40
0.0
 40
0.0
 40
0.0
 40
1.0
 40
1.0
 40
1.0
 40
2.0
 40
2.0
 40
2.0
 40
3.0
 40
3.0
 40
3.0
 40
4.0
 40
4.0
 40
4.0
 40
5.0
 40
5.0
 40
5.0
 40
6.0
 40
6.0
 40
6.0
 40
7.0
 40
7.0
 40
7.0
 40
8.0
 40
8.0
 40
8.0
 40
9.0
 40
9.0
 40
9.0
 40
10.0
 40
10.0
 40
10.0
 40
11.0
 40
11.0
 40
11.0
 40
12.0
 40
12.0
 40
12.0
 40
13.0
 40
13.0
 40
13.0
 40
14.0
 40
14.0
 40
14.0
 40
15.0
 40
15.0
 40
15.0
 40
16.0
 40
16.0
 40
16.0
 40
17.0
 40
17.0
 40
17.0
 40
18.0
 40
18.0
 40
18.0
 40
19.0
 40
19.0
 40
19.0
 40
20.0
 40
20.0
 40
20.0
 40
21.0
 40
21.0
 40
21.0
 40
22.0
 40
22.0
 40
22.0
 40
23.0
 40
23.0
 40
23.0
 40
24.0
 40
24.0
 40
24.0
 40
25.0
 40
25.0
 40
25.0
 40
26.0
 40
26.0
 40
26.0
 40
27.0
 40
27.0
 40
27.0
 40
28.0
 40
28.0
 40
28.0
 40
29.0
 40
29.0
 40
29.0
 40
30.0
 40
30.0
 40
30.0
 40
31.0
 40
31.0
 40
31.0
 40
32.0
 40
32.0
 40
32.0
 40
33.0
 40
33.0
 40
33.0
 40
34.0
 40
34.0
 40
34.0
 40
35.0
 40
35.0
 40
35.0
 40
36.0
 40
36.0
 40
36.0
 40
37.0
 40
37.0
 40
37.0
 40
37.0
 10
189.5739582859398
 20
140.3173610760317
 30
0.0
 10
189.6556298631263
 20
140.3068394594689
 30
0.0
 10
189.7665869338335
 20
140.0174568507354
 30
0.0
 10
189.9671362936472
 20
140.0490819166179
 30
0.0
 10
189.9405638741535
 20
140.3923731834266
 30
0.0
 10
190.053904913508
 20
140.6944347365676
 30
0.0
 10
190.2205585594502
 20
140.9872458389112
 30
0.0
 10
191.4788842602205
 20
143.1981289760163
 30
0.0
 10
194.0396412789166
 20
147.5551838610608
 30
0.0
 10
195.5682353868836
 20
149.4034463718318
 30
0.0
 10
195.9775731611554
 20
149.8983872187746
 30
0.0
 10
196.0882975608087
 20
150.0879113145422
 30
0.0
 10
196.7568078545145
 20
150.2756972142673
 30
0.0
 10
199.1121333421251
 20
150.9373129290914
 30
0.0
 10
202.8071854103999
 20
149.7647269486432
 30
0.0
 10
205.3153188974654
 20
150.3701441263378
 30
0.0
 10
205.3746773607439
 20
149.9974772594378
 30
0.0
 10
205.2652989047984
 20
149.7126856987749
 30
0.0
 10
205.1149436191198
 20
149.3824800124094
 30
0.0
 10
204.3150068241278
 20
147.6256832543367
 30
0.0
 10
201.7057381973435
 20
143.8872672193932
 30
0.0
 10
200.5090915260229
 20
142.0822278327736
 30
0.0
 10
200.276012283779
 20
141.7306476859043
 30
0.0
 10
199.2375715308764
 20
140.1540387494315
 30
0.0
 10
199.0572954845603
 20
140.0944405417628
 30
0.0
 10
199.0572954845603
 20
140.0944405417628
 30
0.0
 10
190.2371738343497
 20
139.9187288608891
 30
0.0
 10
190.2371738343497
 20
139.9187288608891
 30
0.0
 10
189.2199306472722
 20
138.7899942884496
 30
0.0
 10
185.3141475099482
 20
131.3541086051158
 30
0.0
 10
184.4959392097941
 20
131.1078801557493
 30
0.0
 10
184.4959392097941
 20
131.1078801557493
 30
0.0
 10
127.3857971994682
 20
131.0458666429976
 30
0.0
 10
127.3857971994682
 20
131.0458666429976
 30
0.0
 10
108.545992281286
 20
132.7942521397784
 30
0.0
 10
105.6285779463417
 20
144.3018643528139
 30
0.0
 10
114.2030097572938
 20
159.5966429520343
 30
0.0
 10
121.8103436107115
 20
173.1663452464493
 30
0.0
 10
130.8882533133264
 20
187.0033695642506
 30
0.0
 10
139.1193087798863
 20
200.2970105797037
 30
0.0
 10
140.8499448778812
 20
203.0920901546857
 30
0.0
 10
142.2061741336559
 20
205.8993255487993
 30
0.0
 10
144.4683152627012
 20
208.4417541172641
 30
0.0
 10
145.8809658547616
 20
210.0294372093562
 30
0.0
 10
147.8115159853064
 20
212.1890596374874
 30
0.0
 10
149.6030560238529
 20
209.6193603862201
 30
0.0
 10
151.0468993413674
 20
207.5483806636726
 30
0.0
 10
151.5174423129109
 20
196.3498264812817
 30
0.0
 10
151.8601287929152
 20
193.091033279762
 30
0.0
 10
151.907958615664
 20
192.6361933304201
 30
0.0
 10
151.8090640591478
 20
192.2215876330663
 30
0.0
 10
152.2690239801282
 20
191.9124424807326
 30
0.0
 10
153.0824195531948
 20
197.200510655163
 30
0.0
 10
153.3476364934602
 20
202.8691112558418
 30
0.0
 10
154.3264944167326
 20
208.1085616462945
 30
0.0
 10
154.6840126013863
 20
210.0222191318602
 30
0.0
 10
154.8545854391857
 20
211.1874069623363
 30
0.0
 10
157.0812429049328
 20
210.2165888026385
 30
0.0
 10
159.5831334896804
 20
209.1257695587217
 30
0.0
 10
167.5429014301466
 20
197.0338270486723
 30
0.0
 10
169.7532899112254
 20
194.0508593495955
 30
0.0
 10
171.220264422598
 20
192.0711450956283
 30
0.0
 10
172.7394459036781
 20
190.0632730139651
 30
0.0
 10
174.3578226052268
 20
188.2070494272051
 30
0.0
 10
174.3578226052268
 20
188.2070494272051
 30
0.0
 10
162.3951091603264
 20
210.76992986243
 30
0.0
 10
162.3951091603264
 20
210.76992986243
 30
0.0
 10
160.9939735662555
 20
216.4035885364986
 30
0.0
 10
166.2261175644463
 20
215.3528217220963
 30
0.0
 10
169.8047788103397
 20
214.4752646686515
 30
0.0
 10
175.7842142008405
 20
213.0089912937753
 30
0.0
 10
181.8528773958245
 20
210.3860088166705
 30
0.0
 10
187.8540515774047
 20
208.8470284154858
 30
0.0
 10
186.3014685835974
 20
209.9861157424534
 30
0.0
 10
184.5690895667845
 20
210.9902362610466
 30
0.0
 10
182.9085333176954
 20
211.9686027548745
 30
0.0
 10
179.6822933117956
 20
213.8694387696448
 30
0.0
 10
174.9872253700645
 20
216.0113598752371
 30
0.0
 10
172.1080899034708
 20
218.1014924390482
 30
0.0
 10
167.8100430535324
 20
221.2216956340951
 30
0.0
 10
171.3986528435057
 20
223.5150281074176
 30
0.0
 10
174.4473022954696
 20
225.2940170490424
 30
0.0
 10
176.9798682167514
 20
226.7718539859833
 30
0.0
 10
180.5874295545787
 20
228.5114094744673
 30
0.0
 10
183.2939941862574
 20
229.6764918212993
 30
0.0
 10
184.0578925403737
 20
230.0053236092925
 30
0.0
 10
188.5030833188993
 20
231.8077704594412
 30
0.0
 10
188.880973377494
 20
231.5664264243118
 30
0.0
 10
195.0445291348662
 20
219.8493031843291
 30
0.0
 10
189.2665413444366
 20
205.2100487551183
 30
0.0
 10
183.7606231211534
 20
194.2848628954461
 30
0.0
 10
177.8285706518458
 20
182.5141149242084
 30
0.0
 10
169.4626186616421
 20
172.4189626130459
 30
0.0
 10
162.8731252140977
 20
161.1973608159958
 30
0.0
 10
161.2463307707308
 20
158.4270053107606
 30
0.0
 10
158.1903050239692
 20
153.535728156206
 30
0.0
 10
161.6494500716481
 20
151.0220192978823
 30
0.0
 10
164.8572207627628
 20
148.690980416718
 30
0.0
 10
179.3681757909508
 20
148.8919031291064
 30
0.0
 10
183.7640334229486
 20
149.0376992360056
 30
0.0
 10
184.8922492869283
 20
149.0751184370993
 30
0.0
 10
186.1093393841752
 20
149.5388412242246
 30
0.0
 10
187.324221796088
 20
149.3118832716926
 30
0.0
 10
187.3967161584526
 20
148.9361269131739
 30
0.0
 10
187.2566317514107
 20
148.6603716069232
 30
0.0
 10
187.1172975113357
 20
148.3301283544134
 30
0.0
 10
186.0589340617935
 20
145.8216466795286
 30
0.0
 10
183.3842857018643
 20
142.9761199478747
 30
0.0
 10
182.2979166210922
 20
140.3173610760317
 30
0.0
 10
184.5869643993473
 20
140.1058224746196
 30
0.0
 10
187.3480970490649
 20
140.6041151618899
 30
0.0
 10
189.5739582859398
 20
140.3173610760317
 30
0.0
  0
HATCH
  5
84
330
79
100
AcDbEntity
  8
图层 1
 62
    18
420
        0
440
 33554687
100
AcDbHatch
 10
0.0
 20
0.0
 30
0.0
210
0.0
220
0.0
230
1.0
  2
SOLID
 70
     1
 71
     1
 91
        1
 92
        1
 93
        1
 72
     4
 94
        3
 73
     0
 74
     0
 95
      116
 96
      112
 40
0.0
 40
0.0
 40
0.0
 40
0.0
 40
1.0
 40
1.0
 40
1.0
 40
2.0
 40
2.0
 40
2.0
 40
3.0
 40
3.0
 40
3.0
 40
4.0
 40
4.0
 40
4.0
 40
5.0
 40
5.0
 40
5.0
 40
6.0
 40
6.0
 40
6.0
 40
7.0
 40
7.0
 40
7.0
 40
8.0
 40
8.0
 40
8.0
 40
9.0
 40
9.0
 40
9.0
 40
10.0
 40
10.0
 40
10.0
 40
11.0
 40
11.0
 40
11.0
 40
12.0
 40
12.0
 40
12.0
 40
13.0
 40
13.0
 40
13.0
 40
14.0
 40
14.0
 40
14.0
 40
15.0
 40
15.0
 40
15.0
 40
16.0
 40
16.0
 40
16.0
 40
17.0
 40
17.0
 40
17.0
 40
18.0
 40
18.0
 40
18.0
 40
19.0
 40
19.0
 40
19.0
 40
20.0
 40
20.0
 40
20.0
 40
21.0
 40
21.0
 40
21.0
 40
22.0
 40
22.0
 40
22.0
 40
23.0
 40
23.0
 40
23.0
 40
24.0
 40
24.0
 40
24.0
 40
25.0
 40
25.0
 40
25.0
 40
26.0
 40
26.0
 40
26.0
 40
27.0
 40
27.0
 40
27.0
 40
28.0
 40
28.0
 40
28.0
 40
29.0
 40
29.0
 40
29.0
 40
30.0
 40
30.0
 40
30.0
 40
31.0
 40
31.0
 40
31.0
 40
32.0
 40
32.0
 40
32.0
 40
33.0
 40
33.0
 40
33.0
 40
34.0
 40
34.0
 40
34.0
 40
35.0
 40
35.0
 40
35.0
 40
36.0
 40
36.0
 40
36.0
 40
37.0
 40
37.0
 40
37.0
 40
37.0
 10
189.5739582859398
 20
140.3173610760317
 10
189.6556298631263
 20
140.3068394594689
 10
189.7665869338335
 20
140.0174568507354
 10
189.9671362936472
 20
140.0490819166179
 10
189.9405638741535
 20
140.3923731834266
 10
190.053904913508
 20
140.6944347365676
 10
190.2205585594502
 20
140.9872458389112
 10
191.4788842602205
 20
143.1981289760163
 10
194.0396412789166
 20
147.5551838610608
 10
195.5682353868836
 20
149.4034463718318
 10
195.9775731611554
 20
149.8983872187746
 10
196.0882975608087
 20
150.0879113145422
 10
196.7568078545145
 20
150.2756972142673
 10
199.1121333421251
 20
150.9373129290914
 10
202.8071854103999
 20
149.7647269486432
 10
205.3153188974654
 20
150.3701441263378
 10
205.3746773607439
 20
149.9974772594378
 10
205.2652989047984
 20
149.7126856987749
 10
205.1149436191198
 20
149.3824800124094
 10
204.3150068241278
 20
147.6256832543367
 10
201.7057381973435
 20
143.8872672193932
 10
200.5090915260229
 20
142.0822278327736
 10
200.276012283779
 20
141.7306476859043
 10
199.2375715308764
 20
140.1540387494315
 10
199.0572954845603
 20
140.0944405417628
 10
199.0572954845603
 20
140.0944405417628
 10
190.2371738343497
 20
139.9187288608891
 10
190.2371738343497
 20
139.9187288608891
 10
189.2199306472722
 20
138.7899942884496
 10
185.3141475099482
 20
131.3541086051158
 10
184.4959392097941
 20
131.1078801557493
 10
184.4959392097941
 20
131.1078801557493
 10
127.3857971994682
 20
131.0458666429976
 10
127.3857971994682
 20
131.0458666429976
 10
108.545992281286
 20
132.7942521397784
 10
105.6285779463417
 20
144.3018643528139
 10
114.2030097572938
 20
159.5966429520343
 10
121.8103436107115
 20
173.1663452464493
 10
130.8882533133264
 20
187.0033695642506
 10
139.1193087798863
 20
200.2970105797037
 10
140.8499448778812
 20
203.0920901546857
 10
142.2061741336559
 20
205.8993255487993
 10
144.4683152627012
 20
208.4417541172641
 10
145.8809658547616
 20
210.0294372093562
 10
147.8115159853064
 20
212.1890596374874
 10
149.6030560238529
 20
209.6193603862201
 10
151.0468993413674
 20
207.5483806636726
 10
151.5174423129109
 20
196.3498264812817
 10
151.8601287929152
 20
193.091033279762
 10
151.907958615664
 20
192.6361933304201
 10
151.8090640591478
 20
192.2215876330663
 10
152.2690239801282
 20
191.9124424807326
 10
153.0824195531948
 20
197.200510655163
 10
153.3476364934602
 20
202.8691112558418
 10
154.3264944167326
 20
208.1085616462945
 10
154.6840126013863
 20
210.0222191318602
 10
154.8545854391857
 20
211.1874069623363
 10
157.0812429049328
 20
210.2165888026385
 10
159.5831334896804
 20
209.1257695587217
 10
167.5429014301466
 20
197.0338270486723
 10
169.7532899112254
 20
194.0508593495955
 10
171.220264422598
 20
192.0711450956283
 10
172.7394459036781
 20
190.0632730139651
 10
174.3578226052268
 20
188.2070494272051
 10
174.3578226052268
 20
188.2070494272051
 10
162.3951091603264
 20
210.76992986243
 10
162.3951091603264
 20
210.76992986243
 10
160.9939735662555
 20
216.4035885364986
 10
166.2261175644463
 20
215.3528217220963
 10
169.8047788103397
 20
214.4752646686515
 10
175.7842142008405
 20
213.0089912937753
 10
181.8528773958245
 20
210.3860088166705
 10
187.8540515774047
 20
208.8470284154858
 10
186.3014685835974
 20
209.9861157424534
 10
184.5690895667845
 20
210.9902362610466
 10
182.9085333176954
 20
211.9686027548745
 10
179.6822933117956
 20
213.8694387696448
 10
174.9872253700645
 20
216.0113598752371
 10
172.1080899034708
 20
218.1014924390482
 10
167.8100430535324
 20
221.2216956340951
 10
171.3986528435057
 20
223.5150281074176
 10
174.4473022954696
 20
225.2940170490424
 10
176.9798682167514
 20
226.7718539859833
 10
180.5874295545787
 20
228.5114094744673
 10
183.2939941862574
 20
229.6764918212993
 10
184.0578925403737
 20
230.0053236092925
 10
188.5030833188993
 20
231.8077704594412
 10
188.880973377494
 20
231.5664264243118
 10
195.0445291348662
 20
219.8493031843291
 10
189.2665413444366
 20
205.2100487551183
 10
183.7606231211534
 20
194.2848628954461
 10
177.8285706518458
 20
182.5141149242084
 10
169.4626186616421
 20
172.4189626130459
 10
162.8731252140977
 20
161.1973608159958
 10
161.2463307707308
 20
158.4270053107606
 10
158.1903050239692
 20
153.535728156206
 10
161.6494500716481
 20
151.0220192978823
 10
164.8572207627628
 20
148.690980416718
 10
179.3681757909508
 20
148.8919031291064
 10
183.7640334229486
 20
149.0376992360056
 10
184.8922492869283
 20
149.0751184370993
 10
186.1093393841752
 20
149.5388412242246
 10
187.324221796088
 20
149.3118832716926
 10
187.3967161584526
 20
148.9361269131739
 10
187.2566317514107
 20
148.6603716069232
 10
187.1172975113357
 20
148.3301283544134
 10
186.0589340617935
 20
145.8216466795286
 10
183.3842857018643
 20
142.9761199478747
 10
182.2979166210922
 20
140.3173610760317
 10
184.5869643993473
 20
140.1058224746196
 10
187.3480970490649
 20
140.6041151618899
 10
189.5739582859398
 20
140.3173610760317
 97
        0
 97
        1
330
83
 75
     2
 76
     1
 98
        1
 10
0.0
 20
0.0
450
        0
451
        0
460
0.0
461
0.0
452
        0
462
0.0
453
        0
470

  0
SPLINE
  5
85
330
79
100
AcDbEntity
  8
图层 1
100
AcDbSpline
210
0.0
220
0.0
230
1.0
 70
     9
 71
     3
 72
    17
 73
    13
 74
     0
 42
0.0000000001
 43
0.0000000001
 40
0.0
 40
0.0
 40
0.0
 40
0.0
 40
1.0
 40
1.0
 40
1.0
 40
2.0
 40
2.0
 40
2.0
 40
3.0
 40
3.0
 40
3.0
 40
4.0
 40
4.0
 40
4.0
 40
4.0
 10
131.3656249671586
 20
61.47152776240989
 30
0.0
 10
131.3656249671586
 20
61.47152776240989
 30
0.0
 10
165.099999958725
 20
61.47152776240989
 30
0.0
 10
165.099999958725
 20
61.47152776240989
 30
0.0
 10
165.2439551747743
 20
63.23443982219584
 30
0.0
 10
163.1113296919368
 20
63.52760720997761
 30
0.0
 10
161.794369234239
 20
63.85445081875109
 30
0.0
 10
161.794369234239
 20
63.85445081875109
 30
0.0
 10
131.3653307833051
 20
64.02671038900226
 30
0.0
 10
131.3653307833051
 20
64.02671038900226
 30
0.0
 10
130.6915921846292
 20
63.80761011080727
 30
0.0
 10
130.8293522926736
 20
61.63782334337977
 30
0.0
 10
131.3656249671586
 20
61.47152776240989
 30
0.0
  0
SPLINE
  5
86
330
79
100
AcDbEntity
  8
图层 1
100
AcDbSpline
210
0.0
220
0.0
230
1.0
 70
     9
 71
     3
 72
    17
 73
    13
 74
     0
 42
0.0000000001
 43
0.0000000001
 40
0.0
 40
0.0
 40
0.0
 40
0.0
 40
1.0
 40
1.0
 40
1.0
 40
2.0
 40
2.0
 40
2.0
 40
3.0
 40
3.0
 40
3.0
 40
4.0
 40
4.0
 40
4.0
 40
4.0
 10
130.9687499672578
 20
69.9381944269599
 30
0.0
 10
130.9796388681889
 20
68.60875067594688
 30
0.0
 10
130.581302697696
 20
67.82152776082241
 30
0.0
 10
132.1593749669601
 20
67.82152776082241
 30
0.0
 10
132.1593749669601
 20
67.82152776082241
 30
0.0
 10
164.7031249588242
 20
67.82152776082241
 30
0.0
 10
164.7031249588242
 20
67.82152776082241
 30
0.0
 10
166.1339913110942
 20
67.82152776082241
 30
0.0
 10
163.46752725147
 20
69.9381944269599
 30
0.0
 10
162.3218749594195
 20
69.9381944269599
 30
0.0
 10
162.3218749594195
 20
69.9381944269599
 30
0.0
 10
130.9687499672578
 20
69.9381944269599
 30
0.0
 10
130.9687499672578
 20
69.9381944269599
 30
0.0
  0
SPLINE
  5
87
330
79
100
AcDbEntity
  8
图层 1
100
AcDbSpline
210
0.0
220
0.0
230
1.0
 70
     9
 71
     3
 72
    20
 73
    16
 74
     0
 42
0.0000000001
 43
0.0000000001
 40
0.0
 40
0.0
 40
0.0
 40
0.0
 40
1.0
 40
1.0
 40
1.0
 40
2.0
 40
2.0
 40
2.0
 40
3.0
 40
3.0
 40
3.0
 40
4.0
 40
4.0
 40
4.0
 40
5.0
 40
5.0
 40
5.0
 40
5.0
 10
131.3656249671586
 20
73.90694442596771
 30
0.0
 10
131.3656249671586
 20
73.90694442596771
 30
0.0
 10
164.438541625557
 20
73.90694442596771
 30
0.0
 10
164.438541625557
 20
73.90694442596771
 30
0.0
 10
164.4770209008446
 20
73.90694442596771
 30
0.0
 10
165.133719979122
 20
74.22564958411285
 30
0.0
 10
165.0986988672884
 20
74.30248740618219
 30
0.0
 10
164.3452459558236
 20
75.3198693192655
 30
0.0
 10
163.2681014652622
 20
75.60401769182064
 30
0.0
 10
162.0542757352265
 20
75.75601184686064
 30
0.0
 10
162.0542757352265
 20
75.75601184686064
 30
0.0
 10
130.9808815656181
 20
75.74707247597872
 30
0.0
 10
130.9808815656181
 20
75.74707247597872
 30
0.0
 10
130.9299905520134
 20
75.25410138894094
 30
0.0
 10
130.8481509865671
 20
74.06762219950394
 30
0.0
 10
131.3656249671586
 20
73.90694442596771
 30
0.0
  0
SPLINE
  5
88
330
79
100
AcDbEntity
  8
图层 1
100
AcDbSpline
210
0.0
220
0.0
230
1.0
 70
     9
 71
     3
 72
    17
 73
    13
 74
     0
 42
0.0000000001
 43
0.0000000001
 40
0.0
 40
0.0
 40
0.0
 40
0.0
 40
1.0
 40
1.0
 40
1.0
 40
2.0
 40
2.0
 40
2.0
 40
3.0
 40
3.0
 40
3.0
 40
4.0
 40
4.0
 40
4.0
 40
4.0
 10
155.0458332945719
 20
81.57986109071615
 30
0.0
 10
154.1443885426726
 20
82.65061192699652
 30
0.0
 10
153.3913390066077
 20
83.89106606440785
 30
0.0
 10
152.2135863228689
 20
84.70073911737472
 30
0.0
 10
149.1946817497735
 20
84.56714794358436
 30
0.0
 10
145.6852320056251
 20
85.06386624243262
 30
0.0
 10
142.72653404687
 20
84.77103534072313
 30
0.0
 10
141.1760668441553
 20
84.61758111343334
 30
0.0
 10
139.9750110334031
 20
82.66299911382624
 30
0.0
 10
138.9062499652734
 20
81.57986109071615
 30
0.0
 10
138.9062499652734
 20
81.57986109071615
 30
0.0
 10
155.0458332945719
 20
81.57986109071615
 30
0.0
 10
155.0458332945719
 20
81.57986109071615
 30
0.0
  0
SPLINE
  5
89
330
79
100
AcDbEntity
  8
图层 1
100
AcDbSpline
210
0.0
220
0.0
230
1.0
 70
     9
 71
     3
 72
    53
 73
    49
 74
     0
 42
0.0000000001
 43
0.0000000001
 40
0.0
 40
0.0
 40
0.0
 40
0.0
 40
1.0
 40
1.0
 40
1.0
 40
2.0
 40
2.0
 40
2.0
 40
3.0
 40
3.0
 40
3.0
 40
4.0
 40
4.0
 40
4.0
 40
5.0
 40
5.0
 40
5.0
 40
6.0
 40
6.0
 40
6.0
 40
7.0
 40
7.0
 40
7.0
 40
8.0
 40
8.0
 40
8.0
 40
9.0
 40
9.0
 40
9.0
 40
10.0
 40
10.0
 40
10.0
 40
11.0
 40
11.0
 40
11.0
 40
12.0
 40
12.0
 40
12.0
 40
13.0
 40
13.0
 40
13.0
 40
14.0
 40
14.0
 40
14.0
 40
15.0
 40
15.0
 40
15.0
 40
16.0
 40
16.0
 40
16.0
 40
16.0
 10
118.2687499704328
 20
82.77048609041848
 30
0.0
 10
118.3318618494226
 20
82.97536594471848
 30
0.0
 10
118.6946371231351
 20
83.1570747956062
 30
0.0
 10
118.9291104112787
 20
83.16845898264137
 30
0.0
 10
123.6326990382176
 20
83.27623352295786
 30
0.0
 10
128.1797611269299
 20
84.1317423668095
 30
0.0
 10
131.8869738380077
 20
87.14392888501233
 30
0.0
 10
133.5579265832282
 20
88.50161233184072
 30
0.0
 10
134.6524203844086
 20
90.625799165998
 30
0.0
 10
136.9847663355103
 20
91.04196971859414
 30
0.0
 10
143.435949539648
 20
90.54450096146114
 30
0.0
 10
151.5429015320902
 20
91.93421965490831
 30
0.0
 10
157.8008911820368
 20
91.08179397649438
 30
0.0
 10
160.6444385789228
 20
90.69446306761124
 30
0.0
 10
161.3878541414744
 20
88.14734906080524
 30
0.0
 10
163.3802417277893
 20
86.60697785809379
 30
0.0
 10
167.1301238088228
 20
83.70783794633009
 30
0.0
 10
172.9445171226903
 20
83.21891005847639
 30
0.0
 10
177.5367308792796
 20
83.16864124533459
 30
0.0
 10
177.5367308792796
 20
83.16864124533459
 30
0.0
 10
177.8003024905524
 20
76.81822932082221
 30
0.0
 10
177.8003024905524
 20
76.81822932082221
 30
0.0
 10
177.8003024905524
 20
76.81822932082221
 30
0.0
 10
174.3617241584479
 20
76.8159494367299
 30
0.0
 10
174.3617241584479
 20
76.8159494367299
 30
0.0
 10
174.1803888353418
 20
76.65164284824031
 30
0.0
 10
175.6833332894125
 20
73.95611973546789
 30
0.0
 10
175.6833332894125
 20
73.51006942606693
 30
0.0
 10
175.6833332894125
 20
73.51006942606693
 30
0.0
 10
175.6833332894125
 20
55.91527776379896
 30
0.0
 10
175.6833332894125
 20
55.91527776379896
 30
0.0
 10
175.6833332894125
 20
55.91527776379896
 30
0.0
 10
120.7822916364711
 20
55.91527776379896
 30
0.0
 10
120.7822916364711
 20
55.91527776379896
 30
0.0
 10
120.2698428493285
 20
55.91527776379896
 30
0.0
 10
120.6603502185048
 20
57.73229030895318
 30
0.0
 10
120.6319288529017
 20
58.15655439982101
 30
0.0
 10
120.3676283124561
 20
62.1019393638705
 30
0.0
 10
119.7488640849944
 20
71.14069588224899
 30
0.0
 10
120.8310029839983
 20
74.65198280304427
 30
0.0
 10
121.1248318682905
 20
75.60538861750536
 30
0.0
 10
121.7252482767538
 20
75.96067161889817
 30
0.0
 10
121.9729166361734
 20
76.81736109190677
 30
0.0
 10
121.9729166361734
 20
76.81736109190677
 30
0.0
 10
118.2687499704328
 20
76.81736109190677
 30
0.0
 10
118.2687499704328
 20
76.81736109190677
 30
0.0
 10
118.5572036638198
 20
78.32113415100905
 30
0.0
 10
117.8792401837622
 20
81.50602194169072
 30
0.0
 10
118.2687499704328
 20
82.77048609041848
 30
0.0
  0
HATCH
  5
8A
330
79
100
AcDbEntity
  8
图层 1
 62
    18
420
        0
440
 33554687
100
AcDbHatch
 10
0.0
 20
0.0
 30
0.0
210
0.0
220
0.0
230
1.0
  2
SOLID
 70
     1
 71
     1
 91
        5
 92
        1
 93
        1
 72
     4
 94
        3
 73
     0
 74
     0
 95
       17
 96
       13
 40
0.0
 40
0.0
 40
0.0
 40
0.0
 40
1.0
 40
1.0
 40
1.0
 40
2.0
 40
2.0
 40
2.0
 40
3.0
 40
3.0
 40
3.0
 40
4.0
 40
4.0
 40
4.0
 40
4.0
 10
131.3656249671586
 20
61.47152776240989
 10
131.3656249671586
 20
61.47152776240989
 10
165.099999958725
 20
61.47152776240989
 10
165.099999958725
 20
61.47152776240989
 10
165.2439551747743
 20
63.23443982219584
 10
163.1113296919368
 20
63.52760720997761
 10
161.794369234239
 20
63.85445081875109
 10
161.794369234239
 20
63.85445081875109
 10
131.3653307833051
 20
64.02671038900226
 10
131.3653307833051
 20
64.02671038900226
 10
130.6915921846292
 20
63.80761011080727
 10
130.8293522926736
 20
61.63782334337977
 10
131.3656249671586
 20
61.47152776240989
 97
        0
 97
        1
330
85
 92
        1
 93
        1
 72
     4
 94
        3
 73
     0
 74
     0
 95
       17
 96
       13
 40
0.0
 40
0.0
 40
0.0
 40
0.0
 40
1.0
 40
1.0
 40
1.0
 40
2.0
 40
2.0
 40
2.0
 40
3.0
 40
3.0
 40
3.0
 40
4.0
 40
4.0
 40
4.0
 40
4.0
 10
130.9687499672578
 20
69.9381944269599
 10
130.9796388681889
 20
68.60875067594688
 10
130.581302697696
 20
67.82152776082241
 10
132.1593749669601
 20
67.82152776082241
 10
132.1593749669601
 20
67.82152776082241
 10
164.7031249588242
 20
67.82152776082241
 10
164.7031249588242
 20
67.82152776082241
 10
166.1339913110942
 20
67.82152776082241
 10
163.46752725147
 20
69.9381944269599
 10
162.3218749594195
 20
69.9381944269599
 10
162.3218749594195
 20
69.9381944269599
 10
130.9687499672578
 20
69.9381944269599
 10
130.9687499672578
 20
69.9381944269599
 97
        0
 97
        1
330
86
 92
        1
 93
        1
 72
     4
 94
        3
 73
     0
 74
     0
 95
       20
 96
       16
 40
0.0
 40
0.0
 40
0.0
 40
0.0
 40
1.0
 40
1.0
 40
1.0
 40
2.0
 40
2.0
 40
2.0
 40
3.0
 40
3.0
 40
3.0
 40
4.0
 40
4.0
 40
4.0
 40
5.0
 40
5.0
 40
5.0
 40
5.0
 10
131.3656249671586
 20
73.90694442596771
 10
131.3656249671586
 20
73.90694442596771
 10
164.438541625557
 20
73.90694442596771
 10
164.438541625557
 20
73.90694442596771
 10
164.4770209008446
 20
73.90694442596771
 10
165.133719979122
 20
74.22564958411285
 10
165.0986988672884
 20
74.30248740618219
 10
164.3452459558236
 20
75.3198693192655
 10
163.2681014652622
 20
75.60401769182064
 10
162.0542757352265
 20
75.75601184686064
 10
162.0542757352265
 20
75.75601184686064
 10
130.9808815656181
 20
75.74707247597872
 10
130.9808815656181
 20
75.74707247597872
 10
130.9299905520134
 20
75.25410138894094
 10
130.8481509865671
 20
74.06762219950394
 10
131.3656249671586
 20
73.90694442596771
 97
        0
 97
        1
330
87
 92
        1
 93
        1
 72
     4
 94
        3
 73
     0
 74
     0
 95
       17
 96
       13
 40
0.0
 40
0.0
 40
0.0
 40
0.0
 40
1.0
 40
1.0
 40
1.0
 40
2.0
 40
2.0
 40
2.0
 40
3.0
 40
3.0
 40
3.0
 40
4.0
 40
4.0
 40
4.0
 40
4.0
 10
155.0458332945719
 20
81.57986109071615
 10
154.1443885426726
 20
82.65061192699652
 10
153.3913390066077
 20
83.89106606440785
 10
152.2135863228689
 20
84.70073911737472
 10
149.1946817497735
 20
84.56714794358436
 10
145.6852320056251
 20
85.06386624243262
 10
142.72653404687
 20
84.77103534072313
 10
141.1760668441553
 20
84.61758111343334
 10
139.9750110334031
 20
82.66299911382624
 10
138.9062499652734
 20
81.57986109071615
 10
138.9062499652734
 20
81.57986109071615
 10
155.0458332945719
 20
81.57986109071615
 10
155.0458332945719
 20
81.57986109071615
 97
        0
 97
        1
330
88
 92
        1
 93
        1
 72
     4
 94
        3
 73
     0
 74
     0
 95
       53
 96
       49
 40
0.0
 40
0.0
 40
0.0
 40
0.0
 40
1.0
 40
1.0
 40
1.0
 40
2.0
 40
2.0
 40
2.0
 40
3.0
 40
3.0
 40
3.0
 40
4.0
 40
4.0
 40
4.0
 40
5.0
 40
5.0
 40
5.0
 40
6.0
 40
6.0
 40
6.0
 40
7.0
 40
7.0
 40
7.0
 40
8.0
 40
8.0
 40
8.0
 40
9.0
 40
9.0
 40
9.0
 40
10.0
 40
10.0
 40
10.0
 40
11.0
 40
11.0
 40
11.0
 40
12.0
 40
12.0
 40
12.0
 40
13.0
 40
13.0
 40
13.0
 40
14.0
 40
14.0
 40
14.0
 40
15.0
 40
15.0
 40
15.0
 40
16.0
 40
16.0
 40
16.0
 40
16.0
 10
118.2687499704328
 20
82.77048609041848
 10
118.3318618494226
 20
82.97536594471848
 10
118.6946371231351
 20
83.1570747956062
 10
118.9291104112787
 20
83.16845898264137
 10
123.6326990382176
 20
83.27623352295786
 10
128.1797611269299
 20
84.1317423668095
 10
131.8869738380077
 20
87.14392888501233
 10
133.5579265832282
 20
88.50161233184072
 10
134.6524203844086
 20
90.625799165998
 10
136.9847663355103
 20
91.04196971859414
 10
143.435949539648
 20
90.54450096146114
 10
151.5429015320902
 20
91.93421965490831
 10
157.8008911820368
 20
91.08179397649438
 10
160.6444385789228
 20
90.69446306761124
 10
161.3878541414744
 20
88.14734906080524
 10
163.3802417277893
 20
86.60697785809379
 10
167.1301238088228
 20
83.70783794633009
 10
172.9445171226903
 20
83.21891005847639
 10
177.5367308792796
 20
83.16864124533459
 10
177.5367308792796
 20
83.16864124533459
 10
177.8003024905524
 20
76.81822932082221
 10
177.8003024905524
 20
76.81822932082221
 10
177.8003024905524
 20
76.81822932082221
 10
174.3617241584479
 20
76.8159494367299
 10
174.3617241584479
 20
76.8159494367299
 10
174.1803888353418
 20
76.65164284824031
 10
175.6833332894125
 20
73.95611973546789
 10
175.6833332894125
 20
73.51006942606693
 10
175.6833332894125
 20
73.51006942606693
 10
175.6833332894125
 20
55.91527776379896
 10
175.6833332894125
 20
55.91527776379896
 10
175.6833332894125
 20
55.91527776379896
 10
120.7822916364711
 20
55.91527776379896
 10
120.7822916364711
 20
55.91527776379896
 10
120.2698428493285
 20
55.91527776379896
 10
120.6603502185048
 20
57.73229030895318
 10
120.6319288529017
 20
58.15655439982101
 10
120.3676283124561
 20
62.1019393638705
 10
119.7488640849944
 20
71.14069588224899
 10
120.8310029839983
 20
74.65198280304427
 10
121.1248318682905
 20
75.60538861750536
 10
121.7252482767538
 20
75.96067161889817
 10
121.9729166361734
 20
76.81736109190677
 10
121.9729166361734
 20
76.81736109190677
 10
118.2687499704328
 20
76.81736109190677
 10
118.2687499704328
 20
76.81736109190677
 10
118.5572036638198
 20
78.32113415100905
 10
117.8792401837622
 20
81.50602194169072
 10
118.2687499704328
 20
82.77048609041848
 97
        0
 97
        1
330
89
 75
     2
 76
     1
 98
        1
 10
0.0
 20
0.0
450
        0
451
        0
460
0.0
461
0.0
452
        0
462
0.0
453
        0
470

  0
SPLINE
  5
8B
330
79
100
AcDbEntity
  8
图层 1
100
AcDbSpline
210
0.0
220
0.0
230
1.0
 70
     9
 71
     3
 72
    41
 73
    37
 74
     0
 42
0.0000000001
 43
0.0000000001
 40
0.0
 40
0.0
 40
0.0
 40
0.0
 40
1.0
 40
1.0
 40
1.0
 40
2.0
 40
2.0
 40
2.0
 40
3.0
 40
3.0
 40
3.0
 40
4.0
 40
4.0
 40
4.0
 40
5.0
 40
5.0
 40
5.0
 40
6.0
 40
6.0
 40
6.0
 40
7.0
 40
7.0
 40
7.0
 40
8.0
 40
8.0
 40
8.0
 40
9.0
 40
9.0
 40
9.0
 40
10.0
 40
10.0
 40
10.0
 40
11.0
 40
11.0
 40
11.0
 40
12.0
 40
12.0
 40
12.0
 40
12.0
 10
72.49583331520938
 20
114.9173610823817
 30
0.0
 10
72.63134501370498
 20
112.0553879447931
 30
0.0
 10
72.07567237878944
 20
109.3017245591049
 30
0.0
 10
72.48378531042181
 20
106.4624650345051
 30
0.0
 10
72.48378531042181
 20
106.4624650345051
 30
0.0
 10
44.4499999888875
 20
106.4506944178317
 30
0.0
 10
44.4499999888875
 20
106.4506944178317
 30
0.0
 10
44.4499999888875
 20
106.4506944178317
 30
0.0
 10
44.4499999888875
 20
64.38194442834896
 30
0.0
 10
44.4499999888875
 20
64.38194442834896
 30
0.0
 10
44.4499999888875
 20
64.38194442834896
 30
0.0
 10
74.08333331481251
 20
64.38194442834896
 30
0.0
 10
74.08333331481251
 20
64.38194442834896
 30
0.0
 10
74.08333331481251
 20
64.38194442834896
 30
0.0
 10
74.08333331481251
 20
59.2225694296388
 30
0.0
 10
74.08333331481251
 20
59.2225694296388
 30
0.0
 10
74.08333331481251
 20
58.80170524445908
 30
0.0
 10
72.66733031091774
 20
57.14167915651742
 30
0.0
 10
72.21830075760826
 20
56.85426865456804
 30
0.0
 10
71.87371993130239
 20
56.63371268554355
 30
0.0
 10
69.99223449273897
 20
55.91527776379896
 30
0.0
 10
69.7177083159039
 20
55.91527776379896
 30
0.0
 10
69.7177083159039
 20
55.91527776379896
 30
0.0
 10
33.8666666582
 20
55.91527776379896
 30
0.0
 10
33.8666666582
 20
55.91527776379896
 30
0.0
 10
33.8666666582
 20
55.91527776379896
 30
0.0
 10
33.8666666582
 20
108.1704860840685
 30
0.0
 10
33.8666666582
 20
108.1704860840685
 30
0.0
 10
33.8666666582
 20
109.2679992219682
 30
0.0
 10
35.47195380919184
 20
112.2031569280879
 30
0.0
 10
36.33904359805503
 20
112.9735449019182
 30
0.0
 10
37.27588384104266
 20
113.8059044405359
 30
0.0
 10
40.20555531255395
 20
114.9173610823817
 30
0.0
 10
41.40729165631484
 20
114.9173610823817
 30
0.0
 10
41.40729165631484
 20
114.9173610823817
 30
0.0
 10
72.49583331520938
 20
114.9173610823817
 30
0.0
 10
72.49583331520938
 20
114.9173610823817
 30
0.0
  0
HATCH
  5
8C
330
79
100
AcDbEntity
  8
图层 1
 62
    18
420
        0
440
 33554687
100
AcDbHatch
 10
0.0
 20
0.0
 30
0.0
210
0.0
220
0.0
230
1.0
  2
SOLID
 70
     1
 71
     1
 91
        1
 92
        1
 93
        1
 72
     4
 94
        3
 73
     0
 74
     0
 95
       41
 96
       37
 40
0.0
 40
0.0
 40
0.0
 40
0.0
 40
1.0
 40
1.0
 40
1.0
 40
2.0
 40
2.0
 40
2.0
 40
3.0
 40
3.0
 40
3.0
 40
4.0
 40
4.0
 40
4.0
 40
5.0
 40
5.0
 40
5.0
 40
6.0
 40
6.0
 40
6.0
 40
7.0
 40
7.0
 40
7.0
 40
8.0
 40
8.0
 40
8.0
 40
9.0
 40
9.0
 40
9.0
 40
10.0
 40
10.0
 40
10.0
 40
11.0
 40
11.0
 40
11.0
 40
12.0
 40
12.0
 40
12.0
 40
12.0
 10
72.49583331520938
 20
114.9173610823817
 10
72.63134501370498
 20
112.0553879447931
 10
72.07567237878944
 20
109.3017245591049
 10
72.48378531042181
 20
106.4624650345051
 10
72.48378531042181
 20
106.4624650345051
 10
44.4499999888875
 20
106.4506944178317
 10
44.4499999888875
 20
106.4506944178317
 10
44.4499999888875
 20
106.4506944178317
 10
44.4499999888875
 20
64.38194442834896
 10
44.4499999888875
 20
64.38194442834896
 10
44.4499999888875
 20
64.38194442834896
 10
74.08333331481251
 20
64.38194442834896
 10
74.08333331481251
 20
64.38194442834896
 10
74.08333331481251
 20
64.38194442834896
 10
74.08333331481251
 20
59.2225694296388
 10
74.08333331481251
 20
59.2225694296388
 10
74.08333331481251
 20
58.80170524445908
 10
72.66733031091774
 20
57.14167915651742
 10
72.21830075760826
 20
56.85426865456804
 10
71.87371993130239
 20
56.63371268554355
 10
69.99223449273897
 20
55.91527776379896
 10
69.7177083159039
 20
55.91527776379896
 10
69.7177083159039
 20
55.91527776379896
 10
33.8666666582
 20
55.91527776379896
 10
33.8666666582
 20
55.91527776379896
 10
33.8666666582
 20
55.91527776379896
 10
33.8666666582
 20
108.1704860840685
 10
33.8666666582
 20
108.1704860840685
 10
33.8666666582
 20
109.2679992219682
 10
35.47195380919184
 20
112.2031569280879
 10
36.33904359805503
 20
112.9735449019182
 10
37.27588384104266
 20
113.8059044405359
 10
40.20555531255395
 20
114.9173610823817
 10
41.40729165631484
 20
114.9173610823817
 10
41.40729165631484
 20
114.9173610823817
 10
72.49583331520938
 20
114.9173610823817
 10
72.49583331520938
 20
114.9173610823817
 97
        0
 97
        1
330
8B
 75
     2
 76
     1
 98
        1
 10
0.0
 20
0.0
450
        0
451
        0
460
0.0
461
0.0
452
        0
462
0.0
453
        0
470

  0
SPLINE
  5
8D
330
79
100
AcDbEntity
  8
图层 1
100
AcDbSpline
210
0.0
220
0.0
230
1.0
 70
     9
 71
     3
 72
    17
 73
    13
 74
     0
 42
0.0000000001
 43
0.0000000001
 40
0.0
 40
0.0
 40
0.0
 40
0.0
 40
1.0
 40
1.0
 40
1.0
 40
2.0
 40
2.0
 40
2.0
 40
3.0
 40
3.0
 40
3.0
 40
4.0
 40
4.0
 40
4.0
 40
4.0
 10
167.2166666248625
 20
98.77777775308334
 30
0.0
 10
167.3173311591373
 20
99.59498927098231
 30
0.0
 10
165.6925604934498
 20
101.159027752488
 30
0.0
 10
164.9677082920914
 20
101.159027752488
 30
0.0
 10
164.9677082920914
 20
101.159027752488
 30
0.0
 10
129.1166666343875
 20
101.159027752488
 30
0.0
 10
129.1166666343875
 20
101.159027752488
 30
0.0
 10
129.1166666343875
 20
101.159027752488
 30
0.0
 10
129.1166666343875
 20
98.77777775308334
 30
0.0
 10
129.1166666343875
 20
98.77777775308334
 30
0.0
 10
129.1166666343875
 20
98.77777775308334
 30
0.0
 10
167.2166666248625
 20
98.77777775308334
 30
0.0
 10
167.2166666248625
 20
98.77777775308334
 30
0.0
  0
SPLINE
  5
8E
330
79
100
AcDbEntity
  8
图层 1
100
AcDbSpline
210
0.0
220
0.0
230
1.0
 70
     9
 71
     3
 72
    65
 73
    61
 74
     0
 42
0.0000000001
 43
0.0000000001
 40
0.0
 40
0.0
 40
0.0
 40
0.0
 40
1.0
 40
1.0
 40
1.0
 40
2.0
 40
2.0
 40
2.0
 40
3.0
 40
3.0
 40
3.0
 40
4.0
 40
4.0
 40
4.0
 40
5.0
 40
5.0
 40
5.0
 40
6.0
 40
6.0
 40
6.0
 40
7.0
 40
7.0
 40
7.0
 40
8.0
 40
8.0
 40
8.0
 40
9.0
 40
9.0
 40
9.0
 40
10.0
 40
10.0
 40
10.0
 40
11.0
 40
11.0
 40
11.0
 40
12.0
 40
12.0
 40
12.0
 40
13.0
 40
13.0
 40
13.0
 40
14.0
 40
14.0
 40
14.0
 40
15.0
 40
15.0
 40
15.0
 40
16.0
 40
16.0
 40
16.0
 40
17.0
 40
17.0
 40
17.0
 40
18.0
 40
18.0
 40
18.0
 40
19.0
 40
19.0
 40
19.0
 40
20.0
 40
20.0
 40
20.0
 40
20.0
 10
150.2833332957625
 20
115.1819444156489
 30
0.0
 10
150.3787952890917
 20
115.077155954203
 30
0.0
 10
150.0506894889513
 20
113.7914232434576
 30
0.0
 10
150.9437532627751
 20
113.8576300414211
 30
0.0
 10
150.9437532627751
 20
113.8576300414211
 30
0.0
 10
175.1541666228781
 20
113.7267360826794
 30
0.0
 10
175.1541666228781
 20
113.7267360826794
 30
0.0
 10
175.1541666228781
 20
113.7267360826794
 30
0.0
 10
175.1541666228781
 20
109.7579860836716
 30
0.0
 10
175.1541666228781
 20
109.7579860836716
 30
0.0
 10
175.1541666228781
 20
109.065293899957
 30
0.0
 10
173.6211577336423
 20
109.6597858342683
 30
0.0
 10
173.181905907762
 20
109.6372672673011
 30
0.0
 10
167.0682117807831
 20
109.3238442545686
 30
0.0
 10
160.5981062035317
 20
109.1643577967268
 30
0.0
 10
154.3734718255905
 20
109.3501852799985
 30
0.0
 10
152.1364239278661
 20
109.416969119106
 30
0.0
 10
149.7079383041356
 20
110.8916795158821
 30
0.0
 10
150.2833332957625
 20
107.2444444176333
 30
0.0
 10
150.2833332957625
 20
107.2444444176333
 30
0.0
 10
173.1697916233742
 20
107.2444444176333
 30
0.0
 10
173.1697916233742
 20
107.2444444176333
 30
0.0
 10
173.4881111797705
 20
107.2444444176333
 30
0.0
 10
175.6164962184667
 20
106.1175196739534
 30
0.0
 10
175.9490695092794
 20
105.7903889712635
 30
0.0
 10
176.5254941300405
 20
105.223397584866
 30
0.0
 10
177.5354166222828
 20
103.1063132313584
 30
0.0
 10
177.5354166222828
 20
102.3496527521903
 30
0.0
 10
177.5354166222828
 20
102.3496527521903
 30
0.0
 10
177.5354166222828
 20
97.45486108674739
 30
0.0
 10
177.5354166222828
 20
97.45486108674739
 30
0.0
 10
177.5354166222828
 20
97.33579858500299
 30
0.0
 10
175.1541666228781
 20
97.5739235884918
 30
0.0
 10
175.1541666228781
 20
97.45486108674739
 30
0.0
 10
175.1541666228781
 20
97.45486108674739
 30
0.0
 10
175.1541666228781
 20
93.22152775447241
 30
0.0
 10
175.1541666228781
 20
93.22152775447241
 30
0.0
 10
175.1541666228781
 20
93.22152775447241
 30
0.0
 10
120.9145833031047
 20
93.22152775447241
 30
0.0
 10
120.9145833031047
 20
93.22152775447241
 30
0.0
 10
120.9145833031047
 20
93.22152775447241
 30
0.0
 10
120.9145833031047
 20
97.45486108674739
 30
0.0
 10
120.9145833031047
 20
97.45486108674739
 30
0.0
 10
120.9145833031047
 20
97.57387714815607
 30
0.0
 10
118.8300686804031
 20
97.36610486992784
 30
0.0
 10
118.5342627978173
 20
97.45667009783485
 30
0.0
 10
119.3000655612628
 20
99.77026686158426
 30
0.0
 10
118.095324508623
 20
102.7446585592625
 30
0.0
 10
119.4718422681251
 20
104.8507271202387
 30
0.0
 10
119.9996840460892
 20
105.658323655819
 30
0.0
 10
121.9618357869363
 20
107.2444444176333
 30
0.0
 10
122.8989583026086
 20
107.2444444176333
 30
0.0
 10
122.8989583026086
 20
107.2444444176333
 30
0.0
 10
139.699999965075
 20
107.2444444176333
 30
0.0
 10
139.699999965075
 20
107.2444444176333
 30
0.0
 10
139.699999965075
 20
107.2444444176333
 30
0.0
 10
139.699999965075
 20
115.1819444156489
 30
0.0
 10
139.699999965075
 20
115.1819444156489
 30
0.0
 10
141.0438016210491
 20
114.8847550989958
 30
0.0
 10
149.9269691862256
 20
115.5731246691771
 30
0.0
 10
150.2833332957625
 20
115.1819444156489
 30
0.0
  0
HATCH
  5
8F
330
79
100
AcDbEntity
  8
图层 1
 62
    18
420
        0
440
 33554687
100
AcDbHatch
 10
0.0
 20
0.0
 30
0.0
210
0.0
220
0.0
230
1.0
  2
SOLID
 70
     1
 71
     1
 91
        2
 92
        1
 93
        1
 72
     4
 94
        3
 73
     0
 74
     0
 95
       17
 96
       13
 40
0.0
 40
0.0
 40
0.0
 40
0.0
 40
1.0
 40
1.0
 40
1.0
 40
2.0
 40
2.0
 40
2.0
 40
3.0
 40
3.0
 40
3.0
 40
4.0
 40
4.0
 40
4.0
 40
4.0
 10
167.2166666248625
 20
98.77777775308334
 10
167.3173311591373
 20
99.59498927098231
 10
165.6925604934498
 20
101.159027752488
 10
164.9677082920914
 20
101.159027752488
 10
164.9677082920914
 20
101.159027752488
 10
129.1166666343875
 20
101.159027752488
 10
129.1166666343875
 20
101.159027752488
 10
129.1166666343875
 20
101.159027752488
 10
129.1166666343875
 20
98.77777775308334
 10
129.1166666343875
 20
98.77777775308334
 10
129.1166666343875
 20
98.77777775308334
 10
167.2166666248625
 20
98.77777775308334
 10
167.2166666248625
 20
98.77777775308334
 97
        0
 97
        1
330
8D
 92
        1
 93
        1
 72
     4
 94
        3
 73
     0
 74
     0
 95
       65
 96
       61
 40
0.0
 40
0.0
 40
0.0
 40
0.0
 40
1.0
 40
1.0
 40
1.0
 40
2.0
 40
2.0
 40
2.0
 40
3.0
 40
3.0
 40
3.0
 40
4.0
 40
4.0
 40
4.0
 40
5.0
 40
5.0
 40
5.0
 40
6.0
 40
6.0
 40
6.0
 40
7.0
 40
7.0
 40
7.0
 40
8.0
 40
8.0
 40
8.0
 40
9.0
 40
9.0
 40
9.0
 40
10.0
 40
10.0
 40
10.0
 40
11.0
 40
11.0
 40
11.0
 40
12.0
 40
12.0
 40
12.0
 40
13.0
 40
13.0
 40
13.0
 40
14.0
 40
14.0
 40
14.0
 40
15.0
 40
15.0
 40
15.0
 40
16.0
 40
16.0
 40
16.0
 40
17.0
 40
17.0
 40
17.0
 40
18.0
 40
18.0
 40
18.0
 40
19.0
 40
19.0
 40
19.0
 40
20.0
 40
20.0
 40
20.0
 40
20.0
 10
150.2833332957625
 20
115.1819444156489
 10
150.3787952890917
 20
115.077155954203
 10
150.0506894889513
 20
113.7914232434576
 10
150.9437532627751
 20
113.8576300414211
 10
150.9437532627751
 20
113.8576300414211
 10
175.1541666228781
 20
113.7267360826794
 10
175.1541666228781
 20
113.7267360826794
 10
175.1541666228781
 20
113.7267360826794
 10
175.1541666228781
 20
109.7579860836716
 10
175.1541666228781
 20
109.7579860836716
 10
175.1541666228781
 20
109.065293899957
 10
173.6211577336423
 20
109.6597858342683
 10
173.181905907762
 20
109.6372672673011
 10
167.0682117807831
 20
109.3238442545686
 10
160.5981062035317
 20
109.1643577967268
 10
154.3734718255905
 20
109.3501852799985
 10
152.1364239278661
 20
109.416969119106
 10
149.7079383041356
 20
110.8916795158821
 10
150.2833332957625
 20
107.2444444176333
 10
150.2833332957625
 20
107.2444444176333
 10
173.1697916233742
 20
107.2444444176333
 10
173.1697916233742
 20
107.2444444176333
 10
173.4881111797705
 20
107.2444444176333
 10
175.6164962184667
 20
106.1175196739534
 10
175.9490695092794
 20
105.7903889712635
 10
176.5254941300405
 20
105.223397584866
 10
177.5354166222828
 20
103.1063132313584
 10
177.5354166222828
 20
102.3496527521903
 10
177.5354166222828
 20
102.3496527521903
 10
177.5354166222828
 20
97.45486108674739
 10
177.5354166222828
 20
97.45486108674739
 10
177.5354166222828
 20
97.33579858500299
 10
175.1541666228781
 20
97.5739235884918
 10
175.1541666228781
 20
97.45486108674739
 10
175.1541666228781
 20
97.45486108674739
 10
175.1541666228781
 20
93.22152775447241
 10
175.1541666228781
 20
93.22152775447241
 10
175.1541666228781
 20
93.22152775447241
 10
120.9145833031047
 20
93.22152775447241
 10
120.9145833031047
 20
93.22152775447241
 10
120.9145833031047
 20
93.22152775447241
 10
120.9145833031047
 20
97.45486108674739
 10
120.9145833031047
 20
97.45486108674739
 10
120.9145833031047
 20
97.57387714815607
 10
118.8300686804031
 20
97.36610486992784
 10
118.5342627978173
 20
97.45667009783485
 10
119.3000655612628
 20
99.77026686158426
 10
118.095324508623
 20
102.7446585592625
 10
119.4718422681251
 20
104.8507271202387
 10
119.9996840460892
 20
105.658323655819
 10
121.9618357869363
 20
107.2444444176333
 10
122.8989583026086
 20
107.2444444176333
 10
122.8989583026086
 20
107.2444444176333
 10
139.699999965075
 20
107.2444444176333
 10
139.699999965075
 20
107.2444444176333
 10
139.699999965075
 20
107.2444444176333
 10
139.699999965075
 20
115.1819444156489
 10
139.699999965075
 20
115.1819444156489
 10
141.0438016210491
 20
114.8847550989958
 10
149.9269691862256
 20
115.5731246691771
 10
150.2833332957625
 20
115.1819444156489
 97
        0
 97
        1
330
8E
 75
     2
 76
     1
 98
        1
 10
0.0
 20
0.0
450
        0
451
        0
460
0.0
461
0.0
452
        0
462
0.0
453
        0
470

  0
SPLINE
  5
90
330
79
100
AcDbEntity
  8
图层 1
100
AcDbSpline
210
0.0
220
0.0
230
1.0
 70
     9
 71
     3
 72
    35
 73
    31
 74
     0
 42
0.0000000001
 43
0.0000000001
 40
0.0
 40
0.0
 40
0.0
 40
0.0
 40
1.0
 40
1.0
 40
1.0
 40
2.0
 40
2.0
 40
2.0
 40
3.0
 40
3.0
 40
3.0
 40
4.0
 40
4.0
 40
4.0
 40
5.0
 40
5.0
 40
5.0
 40
6.0
 40
6.0
 40
6.0
 40
7.0
 40
7.0
 40
7.0
 40
8.0
 40
8.0
 40
8.0
 40
9.0
 40
9.0
 40
9.0
 40
10.0
 40
10.0
 40
10.0
 40
10.0
 10
15.47812499613047
 20
57.23819443013489
 30
0.0
 10
15.42159048199169
 20
57.24692043422142
 30
0.0
 10
14.8337778605174
 20
57.5111088009951
 30
0.0
 10
14.81285728330449
 20
57.66403010456343
 30
0.0
 10
16.40819858007324
 20
63.92813632583326
 30
0.0
 10
19.06021405062187
 20
70.28256313512303
 30
0.0
 10
19.81000543781614
 20
76.71881364526528
 30
0.0
 10
20.2634959245906
 20
80.61160092809872
 30
0.0
 10
20.47847697909581
 20
86.34415726822872
 30
0.0
 10
17.19988155407663
 20
89.12245098054045
 30
0.0
 10
16.75693490613858
 20
89.49780558436387
 30
0.0
 10
14.8166666629625
 20
90.47678541623302
 30
0.0
 10
14.8166666629625
 20
90.70798608843412
 30
0.0
 10
14.8166666629625
 20
90.70798608843412
 30
0.0
 10
14.8166666629625
 20
101.159027752488
 30
0.0
 10
14.8166666629625
 20
101.159027752488
 30
0.0
 10
20.22865241143103
 20
100.0685731606034
 30
0.0
 10
25.17854311391606
 20
96.22914952141716
 30
0.0
 10
27.47877034921448
 20
91.19925644439611
 30
0.0
 10
31.20449023516557
 20
83.05224715171016
 30
0.0
 10
29.41767449760815
 20
74.20983851690718
 30
0.0
 10
27.11942318324709
 20
65.96981290459139
 30
0.0
 10
26.46520238398656
 20
63.62420513387886
 30
0.0
 10
25.61032419785362
 20
60.20111077898977
 30
0.0
 10
24.73862700685855
 20
58.03185908355994
 30
0.0
 10
24.61437566603888
 20
57.72265488453587
 30
0.0
 10
24.47452856696046
 20
57.4507556945389
 30
0.0
 10
24.20937499394766
 20
57.23819443013489
 30
0.0
 10
21.53203870520826
 20
57.53166999348506
 30
0.0
 10
18.04574682181396
 20
56.8418864599374
 30
0.0
 10
15.47812499613047
 20
57.23819443013489
 30
0.0
  0
HATCH
  5
91
330
79
100
AcDbEntity
  8
图层 1
 62
    18
420
        0
440
 33554687
100
AcDbHatch
 10
0.0
 20
0.0
 30
0.0
210
0.0
220
0.0
230
1.0
  2
SOLID
 70
     1
 71
     1
 91
        1
 92
        1
 93
        1
 72
     4
 94
        3
 73
     0
 74
     0
 95
       35
 96
       31
 40
0.0
 40
0.0
 40
0.0
 40
0.0
 40
1.0
 40
1.0
 40
1.0
 40
2.0
 40
2.0
 40
2.0
 40
3.0
 40
3.0
 40
3.0
 40
4.0
 40
4.0
 40
4.0
 40
5.0
 40
5.0
 40
5.0
 40
6.0
 40
6.0
 40
6.0
 40
7.0
 40
7.0
 40
7.0
 40
8.0
 40
8.0
 40
8.0
 40
9.0
 40
9.0
 40
9.0
 40
10.0
 40
10.0
 40
10.0
 40
10.0
 10
15.47812499613047
 20
57.23819443013489
 10
15.42159048199169
 20
57.24692043422142
 10
14.8337778605174
 20
57.5111088009951
 10
14.81285728330449
 20
57.66403010456343
 10
16.40819858007324
 20
63.92813632583326
 10
19.06021405062187
 20
70.28256313512303
 10
19.81000543781614
 20
76.71881364526528
 10
20.2634959245906
 20
80.61160092809872
 10
20.47847697909581
 20
86.34415726822872
 10
17.19988155407663
 20
89.12245098054045
 10
16.75693490613858
 20
89.49780558436387
 10
14.8166666629625
 20
90.47678541623302
 10
14.8166666629625
 20
90.70798608843412
 10
14.8166666629625
 20
90.70798608843412
 10
14.8166666629625
 20
101.159027752488
 10
14.8166666629625
 20
101.159027752488
 10
20.22865241143103
 20
100.0685731606034
 10
25.17854311391606
 20
96.22914952141716
 10
27.47877034921448
 20
91.19925644439611
 10
31.20449023516557
 20
83.05224715171016
 10
29.41767449760815
 20
74.20983851690718
 10
27.11942318324709
 20
65.96981290459139
 10
26.46520238398656
 20
63.62420513387886
 10
25.61032419785362
 20
60.20111077898977
 10
24.73862700685855
 20
58.03185908355994
 10
24.61437566603888
 20
57.72265488453587
 10
24.47452856696046
 20
57.4507556945389
 10
24.20937499394766
 20
57.23819443013489
 10
21.53203870520826
 20
57.53166999348506
 10
18.04574682181396
 20
56.8418864599374
 10
15.47812499613047
 20
57.23819443013489
 97
        0
 97
        1
330
90
 75
     2
 76
     1
 98
        1
 10
0.0
 20
0.0
450
        0
451
        0
460
0.0
461
0.0
452
        0
462
0.0
453
        0
470

  0
SPLINE
  5
92
330
79
100
AcDbEntity
  8
图层 1
100
AcDbSpline
210
0.0
220
0.0
230
1.0
 70
     9
 71
     3
 72
    38
 73
    34
 74
     0
 42
0.0000000001
 43
0.0000000001
 40
0.0
 40
0.0
 40
0.0
 40
0.0
 40
1.0
 40
1.0
 40
1.0
 40
2.0
 40
2.0
 40
2.0
 40
3.0
 40
3.0
 40
3.0
 40
4.0
 40
4.0
 40
4.0
 40
5.0
 40
5.0
 40
5.0
 40
6.0
 40
6.0
 40
6.0
 40
7.0
 40
7.0
 40
7.0
 40
8.0
 40
8.0
 40
8.0
 40
9.0
 40
9.0
 40
9.0
 40
10.0
 40
10.0
 40
10.0
 40
11.0
 40
11.0
 40
11.0
 40
11.0
 10
185.647908049424
 20
235.4770242033423
 30
0.0
 10
185.9802822982096
 20
235.1737720712202
 30
0.0
 10
187.8587188638105
 20
232.962303885353
 30
0.0
 10
187.5898214785156
 20
232.6592052726283
 30
0.0
 10
182.0965135778944
 20
231.5299428486802
 30
0.0
 10
176.5524053809645
 20
229.4709453020991
 30
0.0
 10
170.9806646417323
 20
228.7606774375963
 30
0.0
 10
169.9219351581404
 20
228.625713955878
 30
0.0
 10
166.7613491969903
 20
228.3135397505769
 30
0.0
 10
165.889553025678
 20
228.5942357475686
 30
0.0
 10
163.292935778768
 20
229.4302798722302
 30
0.0
 10
164.5329531841757
 20
233.9881644999123
 30
0.0
 10
165.2657301731837
 20
235.7985060092613
 30
0.0
 10
165.5359390801736
 20
236.4660629984371
 30
0.0
 10
167.926880812655
 20
240.1457653558428
 30
0.0
 10
167.7444864353355
 20
240.3285088625805
 30
0.0
 10
167.3408099841453
 20
240.7329580093249
 30
0.0
 10
166.3771632862936
 20
239.1334640059522
 30
0.0
 10
166.1310466334251
 20
238.9019396792981
 30
0.0
 10
164.3699311526894
 20
237.2452412353524
 30
0.0
 10
158.3086248066369
 20
231.7344219659843
 30
0.0
 10
156.3777400757981
 20
231.1937684745285
 30
0.0
 10
154.2079560475772
 20
230.5862224663038
 30
0.0
 10
153.6669996091578
 20
232.6979480028356
 30
0.0
 10
153.2672216010498
 20
234.4502076757294
 30
0.0
 10
152.6424618567623
 20
237.1885806801484
 30
0.0
 10
152.7381905047558
 20
240.18744611758
 30
0.0
 10
152.3987829437462
 20
242.9765201166817
 30
0.0
 10
160.6657383486783
 20
243.0703811588844
 30
0.0
 10
169.2088916989052
 20
243.0742862707781
 30
0.0
 10
177.0750519506953
 20
240.2663713793419
 30
0.0
 10
179.6286755562453
 20
239.3548265442975
 30
0.0
 10
183.6605928252811
 20
237.2902139468974
 30
0.0
 10
185.647908049424
 20
235.4770242033423
 30
0.0
  0
HATCH
  5
93
330
79
100
AcDbEntity
  8
图层 1
 62
    18
420
        0
440
 33554687
100
AcDbHatch
 10
0.0
 20
0.0
 30
0.0
210
0.0
220
0.0
230
1.0
  2
SOLID
 70
     1
 71
     1
 91
        1
 92
        1
 93
        1
 72
     4
 94
        3
 73
     0
 74
     0
 95
       38
 96
       34
 40
0.0
 40
0.0
 40
0.0
 40
0.0
 40
1.0
 40
1.0
 40
1.0
 40
2.0
 40
2.0
 40
2.0
 40
3.0
 40
3.0
 40
3.0
 40
4.0
 40
4.0
 40
4.0
 40
5.0
 40
5.0
 40
5.0
 40
6.0
 40
6.0
 40
6.0
 40
7.0
 40
7.0
 40
7.0
 40
8.0
 40
8.0
 40
8.0
 40
9.0
 40
9.0
 40
9.0
 40
10.0
 40
10.0
 40
10.0
 40
11.0
 40
11.0
 40
11.0
 40
11.0
 10
185.647908049424
 20
235.4770242033423
 10
185.9802822982096
 20
235.1737720712202
 10
187.8587188638105
 20
232.962303885353
 10
187.5898214785156
 20
232.6592052726283
 10
182.0965135778944
 20
231.5299428486802
 10
176.5524053809645
 20
229.4709453020991
 10
170.9806646417323
 20
228.7606774375963
 10
169.9219351581404
 20
228.625713955878
 10
166.7613491969903
 20
228.3135397505769
 10
165.889553025678
 20
228.5942357475686
 10
163.292935778768
 20
229.4302798722302
 10
164.5329531841757
 20
233.9881644999123
 10
165.2657301731837
 20
235.7985060092613
 10
165.5359390801736
 20
236.4660629984371
 10
167.926880812655
 20
240.1457653558428
 10
167.7444864353355
 20
240.3285088625805
 10
167.3408099841453
 20
240.7329580093249
 10
166.3771632862936
 20
239.1334640059522
 10
166.1310466334251
 20
238.9019396792981
 10
164.3699311526894
 20
237.2452412353524
 10
158.3086248066369
 20
231.7344219659843
 10
156.3777400757981
 20
231.1937684745285
 10
154.2079560475772
 20
230.5862224663038
 10
153.6669996091578
 20
232.6979480028356
 10
153.2672216010498
 20
234.4502076757294
 10
152.6424618567623
 20
237.1885806801484
 10
152.7381905047558
 20
240.18744611758
 10
152.3987829437462
 20
242.9765201166817
 10
160.6657383486783
 20
243.0703811588844
 10
169.2088916989052
 20
243.0742862707781
 10
177.0750519506953
 20
240.2663713793419
 10
179.6286755562453
 20
239.3548265442975
 10
183.6605928252811
 20
237.2902139468974
 10
185.647908049424
 20
235.4770242033423
 97
        0
 97
        1
330
92
 75
     2
 76
     1
 98
        1
 10
0.0
 20
0.0
450
        0
451
        0
460
0.0
461
0.0
452
        0
462
0.0
453
        0
470

  0
SPLINE
  5
94
330
79
100
AcDbEntity
  8
图层 1
100
AcDbSpline
210
0.0
220
0.0
230
1.0
 70
     9
 71
     3
 72
    56
 73
    52
 74
     0
 42
0.0000000001
 43
0.0000000001
 40
0.0
 40
0.0
 40
0.0
 40
0.0
 40
1.0
 40
1.0
 40
1.0
 40
2.0
 40
2.0
 40
2.0
 40
3.0
 40
3.0
 40
3.0
 40
4.0
 40
4.0
 40
4.0
 40
5.0
 40
5.0
 40
5.0
 40
6.0
 40
6.0
 40
6.0
 40
7.0
 40
7.0
 40
7.0
 40
8.0
 40
8.0
 40
8.0
 40
9.0
 40
9.0
 40
9.0
 40
10.0
 40
10.0
 40
10.0
 40
11.0
 40
11.0
 40
11.0
 40
12.0
 40
12.0
 40
12.0
 40
13.0
 40
13.0
 40
13.0
 40
14.0
 40
14.0
 40
14.0
 40
15.0
 40
15.0
 40
15.0
 40
16.0
 40
16.0
 40
16.0
 40
17.0
 40
17.0
 40
17.0
 40
17.0
 10
129.910416634189
 20
228.6881943872724
 30
0.0
 10
129.9312968020493
 20
228.721249902488
 30
0.0
 10
129.6232822354411
 20
229.0559623868175
 30
0.0
 10
129.7819302921956
 20
229.4595248223769
 30
0.0
 10
129.7819302921956
 20
229.4595248223769
 30
0.0
 10
136.9218749657695
 20
242.9756943837005
 30
0.0
 10
136.9218749657695
 20
242.9756943837005
 30
0.0
 10
136.9218749657695
 20
242.9756943837005
 30
0.0
 10
151.8708332953656
 20
242.9756943837005
 30
0.0
 10
151.8708332953656
 20
242.9756943837005
 30
0.0
 10
151.8708332953656
 20
242.9756943837005
 30
0.0
 10
148.4268414804166
 20
229.7462120811417
 30
0.0
 10
148.4268414804166
 20
229.7462120811417
 30
0.0
 10
146.9243861550032
 20
230.4063848483713
 30
0.0
 10
145.8587995277802
 20
231.6537911145695
 30
0.0
 10
144.7265663102304
 20
232.7887190656879
 30
0.0
 10
144.7265663102304
 20
232.7887190656879
 30
0.0
 10
138.6443175573721
 20
241.3881462462136
 30
0.0
 10
138.6443175573721
 20
241.3881462462136
 30
0.0
 10
139.4104203325855
 20
238.7244383576263
 30
0.0
 10
140.9151953933438
 20
236.2901493655367
 30
0.0
 10
141.9384549473227
 20
233.7047743687012
 30
0.0
 10
142.4198986294718
 20
232.4883552760366
 30
0.0
 10
143.5769231655366
 20
229.8130953421992
 30
0.0
 10
143.7586719326675
 20
228.691152841195
 30
0.0
 10
143.9804331084798
 20
227.3222121207393
 30
0.0
 10
143.4889351543836
 20
226.7686375289962
 30
0.0
 10
142.1877082436411
 20
226.597375295473
 30
0.0
 10
138.2581286981562
 20
226.0801798976443
 30
0.0
 10
133.7619787584234
 20
228.1065050364571
 30
0.0
 10
129.910416634189
 20
228.6881943872724
 30
0.0
 10
129.910416634189
 20
228.6881943872724
 30
0.0
 10
138.0586096896313
 20
223.3485733291019
 30
0.0
 10
138.0586096896313
 20
223.3485733291019
 30
0.0
 10
138.2226037974244
 20
223.060401958976
 30
0.0
 10
138.147371516248
 20
222.6088908916606
 30
0.0
 10
137.9829138735114
 20
222.3343907080563
 30
0.0
 10
137.2593400261226
 20
221.1266562990288
 30
0.0
 10
129.72245241974
 20
222.1820173245415
 30
0.0
 10
128.0596658189038
 20
222.0709249515174
 30
0.0
 10
128.1332117147524
 20
221.4298508754571
 30
0.0
 10
129.3897994487969
 20
221.9149310207304
 30
0.0
 10
129.115293547932
 20
221.0166642818229
 30
0.0
 10
129.115293547932
 20
221.0166642818229
 30
0.0
 10
125.6783819659867
 20
221.0166992060762
 30
0.0
 10
125.6783819659867
 20
221.0166992060762
 30
0.0
 10
125.6783819659867
 20
221.0166992060762
 30
0.0
 10
129.0520307710055
 20
228.0956291346582
 30
0.0
 10
129.0520307710055
 20
228.0956291346582
 30
0.0
 10
129.1060759858999
 20
228.5757526726601
 30
0.0
 10
129.8825646193532
 20
228.6441017005493
 30
0.0
 10
129.910416634189
 20
228.6881943872724
 30
0.0
  0
HATCH
  5
95
330
79
100
AcDbEntity
  8
图层 1
 62
    18
420
        0
440
 33554687
100
AcDbHatch
 10
0.0
 20
0.0
 30
0.0
210
0.0
220
0.0
230
1.0
  2
SOLID
 70
     1
 71
     1
 91
        1
 92
        1
 93
        1
 72
     4
 94
        3
 73
     0
 74
     0
 95
       56
 96
       52
 40
0.0
 40
0.0
 40
0.0
 40
0.0
 40
1.0
 40
1.0
 40
1.0
 40
2.0
 40
2.0
 40
2.0
 40
3.0
 40
3.0
 40
3.0
 40
4.0
 40
4.0
 40
4.0
 40
5.0
 40
5.0
 40
5.0
 40
6.0
 40
6.0
 40
6.0
 40
7.0
 40
7.0
 40
7.0
 40
8.0
 40
8.0
 40
8.0
 40
9.0
 40
9.0
 40
9.0
 40
10.0
 40
10.0
 40
10.0
 40
11.0
 40
11.0
 40
11.0
 40
12.0
 40
12.0
 40
12.0
 40
13.0
 40
13.0
 40
13.0
 40
14.0
 40
14.0
 40
14.0
 40
15.0
 40
15.0
 40
15.0
 40
16.0
 40
16.0
 40
16.0
 40
17.0
 40
17.0
 40
17.0
 40
17.0
 10
129.910416634189
 20
228.6881943872724
 10
129.9312968020493
 20
228.721249902488
 10
129.6232822354411
 20
229.0559623868175
 10
129.7819302921956
 20
229.4595248223769
 10
129.7819302921956
 20
229.4595248223769
 10
136.9218749657695
 20
242.9756943837005
 10
136.9218749657695
 20
242.9756943837005
 10
136.9218749657695
 20
242.9756943837005
 10
151.8708332953656
 20
242.9756943837005
 10
151.8708332953656
 20
242.9756943837005
 10
151.8708332953656
 20
242.9756943837005
 10
148.4268414804166
 20
229.7462120811417
 10
148.4268414804166
 20
229.7462120811417
 10
146.9243861550032
 20
230.4063848483713
 10
145.8587995277802
 20
231.6537911145695
 10
144.7265663102304
 20
232.7887190656879
 10
144.7265663102304
 20
232.7887190656879
 10
138.6443175573721
 20
241.3881462462136
 10
138.6443175573721
 20
241.3881462462136
 10
139.4104203325855
 20
238.7244383576263
 10
140.9151953933438
 20
236.2901493655367
 10
141.9384549473227
 20
233.7047743687012
 10
142.4198986294718
 20
232.4883552760366
 10
143.5769231655366
 20
229.8130953421992
 10
143.7586719326675
 20
228.691152841195
 10
143.9804331084798
 20
227.3222121207393
 10
143.4889351543836
 20
226.7686375289962
 10
142.1877082436411
 20
226.597375295473
 10
138.2581286981562
 20
226.0801798976443
 10
133.7619787584234
 20
228.1065050364571
 10
129.910416634189
 20
228.6881943872724
 10
129.910416634189
 20
228.6881943872724
 10
138.0586096896313
 20
223.3485733291019
 10
138.0586096896313
 20
223.3485733291019
 10
138.2226037974244
 20
223.060401958976
 10
138.147371516248
 20
222.6088908916606
 10
137.9829138735114
 20
222.3343907080563
 10
137.2593400261226
 20
221.1266562990288
 10
129.72245241974
 20
222.1820173245415
 10
128.0596658189038
 20
222.0709249515174
 10
128.1332117147524
 20
221.4298508754571
 10
129.3897994487969
 20
221.9149310207304
 10
129.115293547932
 20
221.0166642818229
 10
129.115293547932
 20
221.0166642818229
 10
125.6783819659867
 20
221.0166992060762
 10
125.6783819659867
 20
221.0166992060762
 10
125.6783819659867
 20
221.0166992060762
 10
129.0520307710055
 20
228.0956291346582
 10
129.0520307710055
 20
228.0956291346582
 10
129.1060759858999
 20
228.5757526726601
 10
129.8825646193532
 20
228.6441017005493
 10
129.910416634189
 20
228.6881943872724
 97
        0
 97
        1
330
94
 75
     2
 76
     1
 98
        1
 10
0.0
 20
0.0
450
        0
451
        0
460
0.0
461
0.0
452
        0
462
0.0
453
        0
470

  0
SPLINE
  5
96
330
79
100
AcDbEntity
  8
图层 1
100
AcDbSpline
210
0.0
220
0.0
230
1.0
 70
     9
 71
     3
 72
    11
 73
     7
 74
     0
 42
0.0000000001
 43
0.0000000001
 40
0.0
 40
0.0
 40
0.0
 40
0.0
 40
1.0
 40
1.0
 40
1.0
 40
2.0
 40
2.0
 40
2.0
 40
2.0
 10
21.09783155553675
 20
115.1185035530343
 30
0.0
 10
30.32561104881921
 20
116.7077363038588
 30
0.0
 10
31.09611750126104
 20
103.6713188716785
 30
0.0
 10
23.11644719725311
 20
103.0324172495498
 30
0.0
 10
15.41831358707462
 20
102.4160571916119
 30
0.0
 10
14.09364924155327
 20
113.9122246281605
 30
0.0
 10
21.09783155553675
 20
115.1185035530343
 30
0.0
  0
HATCH
  5
97
330
79
100
AcDbEntity
  8
图层 1
 62
    18
420
        0
440
 33554687
100
AcDbHatch
 10
0.0
 20
0.0
 30
0.0
210
0.0
220
0.0
230
1.0
  2
SOLID
 70
     1
 71
     1
 91
        1
 92
        1
 93
        1
 72
     4
 94
        3
 73
     0
 74
     0
 95
       11
 96
        7
 40
0.0
 40
0.0
 40
0.0
 40
0.0
 40
1.0
 40
1.0
 40
1.0
 40
2.0
 40
2.0
 40
2.0
 40
2.0
 10
21.09783155553675
 20
115.1185035530343
 10
30.32561104881921
 20
116.7077363038588
 10
31.09611750126104
 20
103.6713188716785
 10
23.11644719725311
 20
103.0324172495498
 10
15.41831358707462
 20
102.4160571916119
 10
14.09364924155327
 20
113.9122246281605
 10
21.09783155553675
 20
115.1185035530343
 97
        0
 97
        1
330
96
 75
     2
 76
     1
 98
        1
 10
0.0
 20
0.0
450
        0
451
        0
460
0.0
461
0.0
452
        0
462
0.0
453
        0
470

  0
SPLINE
  5
98
330
79
100
AcDbEntity
  8
图层 1
100
AcDbSpline
210
0.0
220
0.0
230
1.0
 70
     9
 71
     3
 72
    23
 73
    19
 74
     0
 42
0.0000000001
 43
0.0000000001
 40
0.0
 40
0.0
 40
0.0
 40
0.0
 40
1.0
 40
1.0
 40
1.0
 40
2.0
 40
2.0
 40
2.0
 40
3.0
 40
3.0
 40
3.0
 40
4.0
 40
4.0
 40
4.0
 40
5.0
 40
5.0
 40
5.0
 40
6.0
 40
6.0
 40
6.0
 40
6.0
 10
177.5354166222828
 20
84.75486108992241
 30
0.0
 10
173.0506063044539
 20
85.1145134713419
 30
0.0
 10
168.3252996423122
 20
84.86416527221177
 30
0.0
 10
164.6902787093546
 20
87.91701483977197
 30
0.0
 10
164.6902787093546
 20
87.91701483977197
 30
0.0
 10
161.9249999595187
 20
91.63402775486927
 30
0.0
 10
161.9249999595187
 20
91.63402775486927
 30
0.0
 10
161.9249999595187
 20
91.63402775486927
 30
0.0
 10
173.1697916233742
 20
91.63402775486927
 30
0.0
 10
173.1697916233742
 20
91.63402775486927
 30
0.0
 10
173.3471956494197
 20
91.63402775486927
 30
0.0
 10
174.5310985247057
 20
90.03093375475712
 30
0.0
 10
176.115342345162
 20
89.78806780178169
 30
0.0
 10
176.4261245851905
 20
89.74042461459122
 30
0.0
 10
177.5354166222828
 20
90.18889684750398
 30
0.0
 10
177.5354166222828
 20
89.64965275536536
 30
0.0
 10
177.5354166222828
 20
89.64965275536536
 30
0.0
 10
177.5354166222828
 20
84.75486108992241
 30
0.0
 10
177.5354166222828
 20
84.75486108992241
 30
0.0
  0
HATCH
  5
99
330
79
100
AcDbEntity
  8
图层 1
 62
    18
420
        0
440
 33554687
100
AcDbHatch
 10
0.0
 20
0.0
 30
0.0
210
0.0
220
0.0
230
1.0
  2
SOLID
 70
     1
 71
     1
 91
        1
 92
        1
 93
        1
 72
     4
 94
        3
 73
     0
 74
     0
 95
       23
 96
       19
 40
0.0
 40
0.0
 40
0.0
 40
0.0
 40
1.0
 40
1.0
 40
1.0
 40
2.0
 40
2.0
 40
2.0
 40
3.0
 40
3.0
 40
3.0
 40
4.0
 40
4.0
 40
4.0
 40
5.0
 40
5.0
 40
5.0
 40
6.0
 40
6.0
 40
6.0
 40
6.0
 10
177.5354166222828
 20
84.75486108992241
 10
173.0506063044539
 20
85.1145134713419
 10
168.3252996423122
 20
84.86416527221177
 10
164.6902787093546
 20
87.91701483977197
 10
164.6902787093546
 20
87.91701483977197
 10
161.9249999595187
 20
91.63402775486927
 10
161.9249999595187
 20
91.63402775486927
 10
161.9249999595187
 20
91.63402775486927
 10
173.1697916233742
 20
91.63402775486927
 10
173.1697916233742
 20
91.63402775486927
 10
173.3471956494197
 20
91.63402775486927
 10
174.5310985247057
 20
90.03093375475712
 10
176.115342345162
 20
89.78806780178169
 10
176.4261245851905
 20
89.74042461459122
 10
177.5354166222828
 20
90.18889684750398
 10
177.5354166222828
 20
89.64965275536536
 10
177.5354166222828
 20
89.64965275536536
 10
177.5354166222828
 20
84.75486108992241
 10
177.5354166222828
 20
84.75486108992241
 97
        0
 97
        1
330
98
 75
     2
 76
     1
 98
        1
 10
0.0
 20
0.0
450
        0
451
        0
460
0.0
461
0.0
452
        0
462
0.0
453
        0
470

  0
SPLINE
  5
9A
330
79
100
AcDbEntity
  8
图层 1
100
AcDbSpline
210
0.0
220
0.0
230
1.0
 70
     9
 71
     3
 72
    23
 73
    19
 74
     0
 42
0.0000000001
 43
0.0000000001
 40
0.0
 40
0.0
 40
0.0
 40
0.0
 40
1.0
 40
1.0
 40
1.0
 40
2.0
 40
2.0
 40
2.0
 40
3.0
 40
3.0
 40
3.0
 40
4.0
 40
4.0
 40
4.0
 40
5.0
 40
5.0
 40
5.0
 40
6.0
 40
6.0
 40
6.0
 40
6.0
 10
133.8791666331969
 20
91.63402775486927
 30
0.0
 10
131.9492097496793
 20
89.34786866130883
 30
0.0
 10
130.2382420365135
 20
87.02109451226217
 30
0.0
 10
127.362844452261
 20
85.84722493888088
 30
0.0
 10
124.5745823526621
 20
84.70892807890658
 30
0.0
 10
121.4962472056024
 20
84.62313368673598
 30
0.0
 10
118.5320003412115
 20
84.48872101247337
 30
0.0
 10
118.615678098017
 20
85.28952137827142
 30
0.0
 10
117.9586750614583
 20
89.48386304224701
 30
0.0
 10
118.2671867525453
 20
89.7833059967901
 30
0.0
 10
118.3488887899974
 20
89.86260639348047
 30
0.0
 10
119.8180087854229
 20
89.78533221464168
 30
0.0
 10
120.5305409036573
 20
90.0337818793297
 30
0.0
 10
121.3264850497216
 20
90.31131611412417
 30
0.0
 10
122.5022111992839
 20
91.63402775486927
 30
0.0
 10
122.6343749693414
 20
91.63402775486927
 30
0.0
 10
122.6343749693414
 20
91.63402775486927
 30
0.0
 10
133.8791666331969
 20
91.63402775486927
 30
0.0
 10
133.8791666331969
 20
91.63402775486927
 30
0.0
  0
HATCH
  5
9B
330
79
100
AcDbEntity
  8
图层 1
 62
    18
420
        0
440
 33554687
100
AcDbHatch
 10
0.0
 20
0.0
 30
0.0
210
0.0
220
0.0
230
1.0
  2
SOLID
 70
     1
 71
     1
 91
        1
 92
        1
 93
        1
 72
     4
 94
        3
 73
     0
 74
     0
 95
       23
 96
       19
 40
0.0
 40
0.0
 40
0.0
 40
0.0
 40
1.0
 40
1.0
 40
1.0
 40
2.0
 40
2.0
 40
2.0
 40
3.0
 40
3.0
 40
3.0
 40
4.0
 40
4.0
 40
4.0
 40
5.0
 40
5.0
 40
5.0
 40
6.0
 40
6.0
 40
6.0
 40
6.0
 10
133.8791666331969
 20
91.63402775486927
 10
131.9492097496793
 20
89.34786866130883
 10
130.2382420365135
 20
87.02109451226217
 10
127.362844452261
 20
85.84722493888088
 10
124.5745823526621
 20
84.70892807890658
 10
121.4962472056024
 20
84.62313368673598
 10
118.5320003412115
 20
84.48872101247337
 10
118.615678098017
 20
85.28952137827142
 10
117.9586750614583
 20
89.48386304224701
 10
118.2671867525453
 20
89.7833059967901
 10
118.3488887899974
 20
89.86260639348047
 10
119.8180087854229
 20
89.78533221464168
 10
120.5305409036573
 20
90.0337818793297
 10
121.3264850497216
 20
90.31131611412417
 10
122.5022111992839
 20
91.63402775486927
 10
122.6343749693414
 20
91.63402775486927
 10
122.6343749693414
 20
91.63402775486927
 10
133.8791666331969
 20
91.63402775486927
 10
133.8791666331969
 20
91.63402775486927
 97
        0
 97
        1
330
9A
 75
     2
 76
     1
 98
        1
 10
0.0
 20
0.0
450
        0
451
        0
460
0.0
461
0.0
452
        0
462
0.0
453
        0
470

  0
SPLINE
  5
9C
330
79
100
AcDbEntity
  8
图层 1
100
AcDbSpline
210
0.0
220
0.0
230
1.0
 70
     9
 71
     3
 72
    26
 73
    22
 74
     0
 42
0.0000000001
 43
0.0000000001
 40
0.0
 40
0.0
 40
0.0
 40
0.0
 40
1.0
 40
1.0
 40
1.0
 40
2.0
 40
2.0
 40
2.0
 40
3.0
 40
3.0
 40
3.0
 40
4.0
 40
4.0
 40
4.0
 40
5.0
 40
5.0
 40
5.0
 40
6.0
 40
6.0
 40
6.0
 40
7.0
 40
7.0
 40
7.0
 40
7.0
 10
218.9427082785977
 20
157.5152777383989
 30
0.0
 10
219.0182065692466
 20
157.4963439100564
 30
0.0
 10
219.4469297330642
 20
157.1316386195285
 30
0.0
 10
219.2241608092945
 20
156.9771668344475
 30
0.0
 10
217.8906043751804
 20
155.0227237408236
 30
0.0
 10
216.6950312792882
 20
152.9846333453498
 30
0.0
 10
215.3503674437539
 20
151.0364178207332
 30
0.0
 10
215.2079596318587
 20
150.8300903337958
 30
0.0
 10
215.4543409678168
 20
150.1069444069177
 30
0.0
 10
214.7093749463227
 20
150.1069444069177
 30
0.0
 10
214.7093749463227
 20
150.1069444069177
 30
0.0
 10
208.6239582811773
 20
150.1069444069177
 30
0.0
 10
208.6239582811773
 20
150.1069444069177
 30
0.0
 10
208.5913206346211
 20
150.1069444069177
 30
0.0
 10
208.1081836356903
 20
150.4836249064528
 30
0.0
 10
208.3412460563381
 20
150.6460712709523
 30
0.0
 10
208.3412460563381
 20
150.6460712709523
 30
0.0
 10
212.8572916134523
 20
157.5152777383989
 30
0.0
 10
212.8572916134523
 20
157.5152777383989
 30
0.0
 10
214.5304278528002
 20
157.2389260059178
 30
0.0
 10
217.4503849895046
 20
157.8895298273458
 30
0.0
 10
218.9427082785977
 20
157.5152777383989
 30
0.0
  0
HATCH
  5
9D
330
79
100
AcDbEntity
  8
图层 1
 62
    18
420
        0
440
 33554687
100
AcDbHatch
 10
0.0
 20
0.0
 30
0.0
210
0.0
220
0.0
230
1.0
  2
SOLID
 70
     1
 71
     1
 91
        1
 92
        1
 93
        1
 72
     4
 94
        3
 73
     0
 74
     0
 95
       26
 96
       22
 40
0.0
 40
0.0
 40
0.0
 40
0.0
 40
1.0
 40
1.0
 40
1.0
 40
2.0
 40
2.0
 40
2.0
 40
3.0
 40
3.0
 40
3.0
 40
4.0
 40
4.0
 40
4.0
 40
5.0
 40
5.0
 40
5.0
 40
6.0
 40
6.0
 40
6.0
 40
7.0
 40
7.0
 40
7.0
 40
7.0
 10
218.9427082785977
 20
157.5152777383989
 10
219.0182065692466
 20
157.4963439100564
 10
219.4469297330642
 20
157.1316386195285
 10
219.2241608092945
 20
156.9771668344475
 10
217.8906043751804
 20
155.0227237408236
 10
216.6950312792882
 20
152.9846333453498
 10
215.3503674437539
 20
151.0364178207332
 10
215.2079596318587
 20
150.8300903337958
 10
215.4543409678168
 20
150.1069444069177
 10
214.7093749463227
 20
150.1069444069177
 10
214.7093749463227
 20
150.1069444069177
 10
208.6239582811773
 20
150.1069444069177
 10
208.6239582811773
 20
150.1069444069177
 10
208.5913206346211
 20
150.1069444069177
 10
208.1081836356903
 20
150.4836249064528
 10
208.3412460563381
 20
150.6460712709523
 10
208.3412460563381
 20
150.6460712709523
 10
212.8572916134523
 20
157.5152777383989
 10
212.8572916134523
 20
157.5152777383989
 10
214.5304278528002
 20
157.2389260059178
 10
217.4503849895046
 20
157.8895298273458
 10
218.9427082785977
 20
157.5152777383989
 97
        0
 97
        1
330
9C
 75
     2
 76
     1
 98
        1
 10
0.0
 20
0.0
450
        0
451
        0
460
0.0
461
0.0
452
        0
462
0.0
453
        0
470

  0
SPLINE
  5
9E
330
79
100
AcDbEntity
  8
图层 1
100
AcDbSpline
210
0.0
220
0.0
230
1.0
 70
     9
 71
     3
 72
    20
 73
    16
 74
     0
 42
0.0000000001
 43
0.0000000001
 40
0.0
 40
0.0
 40
0.0
 40
0.0
 40
1.0
 40
1.0
 40
1.0
 40
2.0
 40
2.0
 40
2.0
 40
3.0
 40
3.0
 40
3.0
 40
4.0
 40
4.0
 40
4.0
 40
5.0
 40
5.0
 40
5.0
 40
5.0
 10
211.5343749471164
 20
160.9548610708724
 30
0.0
 10
211.6265457007831
 20
160.9674716914723
 30
0.0
 10
211.7193222772722
 20
161.2753256684743
 30
0.0
 10
211.9285832689878
 20
161.2193965362872
 30
0.0
 10
212.2989400315933
 20
160.7281980669469
 30
0.0
 10
208.5008211014285
 20
155.7422778166658
 30
0.0
 10
208.2270832812766
 20
154.6048610724599
 30
0.0
 10
208.2270832812766
 20
154.6048610724599
 30
0.0
 10
202.1416666161313
 20
154.6048610724599
 30
0.0
 10
202.1416666161313
 20
154.6048610724599
 30
0.0
 10
202.1416666161313
 20
154.6048610724599
 30
0.0
 10
205.8458332818719
 20
160.9548610708724
 30
0.0
 10
205.8458332818719
 20
160.9548610708724
 30
0.0
 10
207.6295143150518
 20
161.1278825068799
 30
0.0
 10
209.807012320178
 20
160.7185267255422
 30
0.0
 10
211.5343749471164
 20
160.9548610708724
 30
0.0
  0
HATCH
  5
9F
330
79
100
AcDbEntity
  8
图层 1
 62
    18
420
        0
440
 33554687
100
AcDbHatch
 10
0.0
 20
0.0
 30
0.0
210
0.0
220
0.0
230
1.0
  2
SOLID
 70
     1
 71
     1
 91
        1
 92
        1
 93
        1
 72
     4
 94
        3
 73
     0
 74
     0
 95
       20
 96
       16
 40
0.0
 40
0.0
 40
0.0
 40
0.0
 40
1.0
 40
1.0
 40
1.0
 40
2.0
 40
2.0
 40
2.0
 40
3.0
 40
3.0
 40
3.0
 40
4.0
 40
4.0
 40
4.0
 40
5.0
 40
5.0
 40
5.0
 40
5.0
 10
211.5343749471164
 20
160.9548610708724
 10
211.6265457007831
 20
160.9674716914723
 10
211.7193222772722
 20
161.2753256684743
 10
211.9285832689878
 20
161.2193965362872
 10
212.2989400315933
 20
160.7281980669469
 10
208.5008211014285
 20
155.7422778166658
 10
208.2270832812766
 20
154.6048610724599
 10
208.2270832812766
 20
154.6048610724599
 10
202.1416666161313
 20
154.6048610724599
 10
202.1416666161313
 20
154.6048610724599
 10
202.1416666161313
 20
154.6048610724599
 10
205.8458332818719
 20
160.9548610708724
 10
205.8458332818719
 20
160.9548610708724
 10
207.6295143150518
 20
161.1278825068799
 10
209.807012320178
 20
160.7185267255422
 10
211.5343749471164
 20
160.9548610708724
 97
        0
 97
        1
330
9E
 75
     2
 76
     1
 98
        1
 10
0.0
 20
0.0
450
        0
451
        0
460
0.0
461
0.0
452
        0
462
0.0
453
        0
470

  0
ENDBLK
  5
7C
330
79
100
AcDbEntity
  8
0
100
AcDbBlockEnd
  0
ENDSEC
  0
SECTION
  2
ENTITIES
  0
INSERT
  5
7A
330
70
100
AcDbEntity
  8
图层 1
100
AcDbBlockReference
  2
Block_0
 10
0.0
 20
0.0
 30
0.0
  0
ENDSEC
  0
SECTION
  2
OBJECTS
  0
DICTIONARY
  5
C
330
0
100
AcDbDictionary
281
     1
  3
ACAD_COLOR
350
63
  3
ACAD_DETAILVIEWSTYLE
350
6A
  3
ACAD_GROUP
350
D
  3
ACAD_LAYOUT
350
62
  3
ACAD_MATERIAL
350
10
  3
ACAD_MLEADERSTYLE
350
66
  3
ACAD_MLINESTYLE
350
5F
  3
ACAD_PLOTSETTINGS
350
61
  3
ACAD_PLOTSTYLENAME
350
E
  3
ACAD_SCALELIST
350
42
  3
ACAD_SECTIONVIEWSTYLE
350
68
  3
ACAD_TABLESTYLE
350
64
  3
ACAD_VISUALSTYLE
350
29
  3
ACDB_RECOMPOSE_DATA
350
A8
  3
AcDbVariableDictionary
350
A0
  0
DICTIONARY
  5
63
102
{ACAD_REACTORS
330
C
102
}
330
C
100
AcDbDictionary
281
     1
  0
DICTIONARY
  5
6A
102
{ACAD_REACTORS
330
C
102
}
330
C
100
AcDbDictionary
281
     1
  3
Imperial24
350
6B
  0
DICTIONARY
  5
D
102
{ACAD_REACTORS
330
C
102
}
330
C
100
AcDbDictionary
281
     1
  0
DICTIONARY
  5
62
102
{ACAD_REACTORS
330
C
102
}
330
C
100
AcDbDictionary
281
     1
  3
Layout1
350
6F
  3
Layout2
350
77
  3
Model
350
73
  0
DICTIONARY
  5
10
102
{ACAD_REACTORS
330
C
102
}
330
C
100
AcDbDictionary
281
     1
  3
ByBlock
350
19
  3
ByLayer
350
11
  3
Global
350
21
  0
DICTIONARY
  5
66
102
{ACAD_REACTORS
330
C
102
}
330
C
100
AcDbDictionary
281
     1
  3
Standard
350
67
  0
DICTIONARY
  5
5F
102
{ACAD_REACTORS
330
C
102
}
330
C
100
AcDbDictionary
281
     1
  3
Standard
350
60
  0
DICTIONARY
  5
61
102
{ACAD_REACTORS
330
C
102
}
330
C
100
AcDbDictionary
281
     1
  0
ACDBDICTIONARYWDFLT
  5
E
102
{ACAD_REACTORS
330
C
102
}
330
C
100
AcDbDictionary
281
     1
  3
Normal
350
F
100
AcDbDictionaryWithDefault
340
F
  0
DICTIONARY
  5
42
102
{ACAD_REACTORS
330
C
102
}
330
C
100
AcDbDictionary
281
     1
  3
A0
350
43
  3
A1
350
44
  3
A2
350
45
  3
A3
350
46
  3
A4
350
47
  3
A5
350
48
  3
A6
350
49
  3
A7
350
4A
  3
A8
350
4B
  3
A9
350
4C
  3
B0
350
4D
  3
B1
350
4E
  3
B2
350
4F
  3
B3
350
50
  3
B4
350
51
  3
B5
350
52
  3
B6
350
53
  0
DICTIONARY
  5
68
102
{ACAD_REACTORS
330
C
102
}
330
C
100
AcDbDictionary
281
     1
  3
Imperial24
350
69
  0
DICTIONARY
  5
64
102
{ACAD_REACTORS
330
C
102
}
330
C
100
AcDbDictionary
281
     1
  3
Standard
350
65
  0
DICTIONARY
  5
29
102
{ACAD_REACTORS
330
C
102
}
330
C
100
AcDbDictionary
281
     1
  3
2dWireframe
350
2F
  3
Basic
350
2E
  3
Brighten
350
35
  3
ColorChange
350
39
  3
Conceptual
350
32
  3
Dim
350
34
  3
EdgeColorOff
350
41
  3
Facepattern
350
38
  3
Flat
350
2A
  3
FlatWithEdges
350
2B
  3
Gouraud
350
2C
  3
GouraudWithEdges
350
2D
  3
Hidden
350
31
  3
JitterOff
350
3F
  3
Linepattern
350
37
  3
OverhangOff
350
40
  3
Realistic
350
33
  3
Shaded
350
3E
  3
Shaded with edges
350
3D
  3
Shades of Gray
350
3A
  3
Sketchy
350
3B
  3
Thicken
350
36
  3
Wireframe
350
30
  3
X-Ray
350
3C
  0
XRECORD
  5
A8
102
{ACAD_REACTORS
330
C
102
}
330
C
100
AcDbXrecord
280
     1
 90
        1
330
65
  0
DICTIONARY
  5
A0
102
{ACAD_REACTORS
330
C
102
}
330
C
100
AcDbDictionary
281
     1
  3
CANNOSCALE
350
A5
  3
CMLEADERSTYLE
350
A2
  3
CTABLESTYLE
350
A1
  3
CVIEWDETAILSTYLE
350
A3
  3
CVIEWSECTIONSTYLE
350
A4
  0
ACDBDETAILVIEWSTYLE
  5
6B
102
{ACAD_REACTORS
330
6A
102
}
330
6A
100
AcDbModelDocViewStyle
 70
     0
  3
Imperial24
290
     1
300
Imperial24
 90
        0
100
AcDbDetailViewStyle
 70
     0
 71
     0
 90
        3
 71
     1
340
55
 62
   256
 40
0.24
340
0
 62
   256
 40
0.24
300

 40
0.36
280
     3
 71
     2
340
5D
 90
       25
 62
   256
 71
     3
340
55
 62
   256
 40
0.24
 90
        1
 40
0.75
 90
        1
300
%<\AcVar ViewType \f "%tc1">% %<\AcVar ViewDetailId>%\PSCALE %<\AcVar ViewScale \f "%sn">%
 71
     4
340
5D
 90
       25
 62
   256
340
5D
 90
       25
 62
   256
280
     0
  0
LAYOUT
  5
6F
102
{ACAD_REACTORS
330
62
102
}
330
62
100
AcDbPlotSettings
  1

  2

  4

  6

 40
0.0
 41
0.0
 42
0.0
 43
0.0
 44
0.0
 45
0.0
 46
0.0
 47
0.0
 48
0.0
 49
0.0
140
0.0
141
0.0
142
1.0
143
1.0
 70
   688
 72
     0
 73
     0
 74
     5
  7

 75
    16
147
1.0
 76
     0
 77
     2
 78
   300
148
0.0
149
0.0
100
AcDbLayout
  1
Layout1
 70
     1
 71
     1
 10
0.0
 20
0.0
 11
12.0
 21
9.0
 12
0.0
 22
0.0
 32
0.0
 14
0.0
 24
0.0
 34
0.0
 15
0.0
 25
0.0
 35
0.0
146
0.0
 13
0.0
 23
0.0
 33
0.0
 16
1.0
 26
0.0
 36
0.0
 17
0.0
 27
1.0
 37
0.0
 76
     0
330
6C
  0
LAYOUT
  5
77
102
{ACAD_REACTORS
330
62
102
}
330
62
100
AcDbPlotSettings
  1

  2

  4

  6

 40
0.0
 41
0.0
 42
0.0
 43
0.0
 44
0.0
 45
0.0
 46
0.0
 47
0.0
 48
0.0
 49
0.0
140
0.0
141
0.0
142
1.0
143
1.0
 70
   688
 72
     0
 73
     0
 74
     5
  7

 75
    16
147
1.0
 76
     0
 77
     2
 78
   300
148
0.0
149
0.0
100
AcDbLayout
  1
Layout2
 70
     1
 71
     2
 10
0.0
 20
0.0
 11
12.0
 21
9.0
 12
0.0
 22
0.0
 32
0.0
 14
0.0
 24
0.0
 34
0.0
 15
0.0
 25
0.0
 35
0.0
146
0.0
 13
0.0
 23
0.0
 33
0.0
 16
1.0
 26
0.0
 36
0.0
 17
0.0
 27
1.0
 37
0.0
 76
     0
330
74
  0
LAYOUT
  5
73
102
{ACAD_REACTORS
330
62
102
}
330
62
100
AcDbPlotSettings
  1

  2

  4

  6

 40
0.0
 41
0.0
 42
0.0
 43
0.0
 44
0.0
 45
0.0
 46
0.0
 47
0.0
 48
0.0
 49
0.0
140
0.0
141
0.0
142
1.0
143
1.0
 70
  1712
 72
     0
 73
     0
 74
     0
  7

 75
     0
147
1.0
 76
     0
 77
     2
 78
   300
148
0.0
149
0.0
100
AcDbLayout
  1
Model
 70
     1
 71
     0
 10
0.0
 20
0.0
 11
12.0
 21
9.0
 12
0.0
 22
0.0
 32
0.0
 14
0.0
 24
0.0
 34
0.0
 15
0.0
 25
0.0
 35
0.0
146
0.0
 13
0.0
 23
0.0
 33
0.0
 16
1.0
 26
0.0
 36
0.0
 17
0.0
 27
1.0
 37
0.0
 76
     0
330
70
  0
MATERIAL
  5
19
102
{ACAD_XDICTIONARY
360
1A
102
}
102
{ACAD_REACTORS
330
10
102
}
330
10
100
AcDbMaterial
  1
ByBlock
 72
     0
 43
0.0208333333333333
 43
0.0
 43
0.0
 43
0.0
 43
0.0
 43
0.0208333333333333
 43
0.0
 43
0.0
 43
0.0
 43
0.0
 43
1.0
 43
0.0
 43
0.0
 43
0.0
 43
0.0
 43
1.0
 77
     0
 47
0.0208333333333333
 47
0.0
 47
0.0
 47
0.0
 47
0.0
 47
0.0208333333333333
 47
0.0
 47
0.0
 47
0.0
 47
0.0
 47
1.0
 47
0.0
 47
0.0
 47
0.0
 47
0.0
 47
1.0
171
     0
 49
0.0208333333333333
 49
0.0
 49
0.0
 49
0.0
 49
0.0
 49
0.0208333333333333
 49
0.0
 49
0.0
 49
0.0
 49
0.0
 49
1.0
 49
0.0
 49
0.0
 49
0.0
 49
0.0
 49
1.0
175
     0
142
0.0208333333333333
142
0.0
142
0.0
142
0.0
142
0.0
142
0.0208333333333333
142
0.0
142
0.0
142
0.0
142
0.0
142
1.0
142
0.0
142
0.0
142
0.0
142
0.0
142
1.0
179
     0
144
0.0208333333333333
144
0.0
144
0.0
144
0.0
144
0.0
144
0.0208333333333333
144
0.0
144
0.0
144
0.0
144
0.0
144
1.0
144
0.0
144
0.0
144
0.0
144
0.0
144
1.0
147
0.0208333333333333
147
0.0
147
0.0
147
0.0
147
0.0
147
0.0208333333333333
147
0.0
147
0.0
147
0.0
147
0.0
147
1.0
147
0.0
147
0.0
147
0.0
147
0.0
147
1.0
  0
MATERIAL
  5
11
102
{ACAD_XDICTIONARY
360
12
102
}
102
{ACAD_REACTORS
330
10
102
}
330
10
100
AcDbMaterial
  1
ByLayer
 72
     0
 43
0.0208333333333333
 43
0.0
 43
0.0
 43
0.0
 43
0.0
 43
0.0208333333333333
 43
0.0
 43
0.0
 43
0.0
 43
0.0
 43
1.0
 43
0.0
 43
0.0
 43
0.0
 43
0.0
 43
1.0
 77
     0
 47
0.0208333333333333
 47
0.0
 47
0.0
 47
0.0
 47
0.0
 47
0.0208333333333333
 47
0.0
 47
0.0
 47
0.0
 47
0.0
 47
1.0
 47
0.0
 47
0.0
 47
0.0
 47
0.0
 47
1.0
171
     0
 49
0.0208333333333333
 49
0.0
 49
0.0
 49
0.0
 49
0.0
 49
0.0208333333333333
 49
0.0
 49
0.0
 49
0.0
 49
0.0
 49
1.0
 49
0.0
 49
0.0
 49
0.0
 49
0.0
 49
1.0
175
     0
142
0.0208333333333333
142
0.0
142
0.0
142
0.0
142
0.0
142
0.0208333333333333
142
0.0
142
0.0
142
0.0
142
0.0
142
1.0
142
0.0
142
0.0
142
0.0
142
0.0
142
1.0
179
     0
144
0.0208333333333333
144
0.0
144
0.0
144
0.0
144
0.0
144
0.0208333333333333
144
0.0
144
0.0
144
0.0
144
0.0
144
1.0
144
0.0
144
0.0
144
0.0
144
0.0
144
1.0
147
0.0208333333333333
147
0.0
147
0.0
147
0.0
147
0.0
147
0.0208333333333333
147
0.0
147
0.0
147
0.0
147
0.0
147
1.0
147
0.0
147
0.0
147
0.0
147
0.0
147
1.0
  0
MATERIAL
  5
21
102
{ACAD_XDICTIONARY
360
22
102
}
102
{ACAD_REACTORS
330
10
102
}
330
10
100
AcDbMaterial
  1
Global
 72
     0
 43
0.0208333333333333
 43
0.0
 43
0.0
 43
0.0
 43
0.0
 43
0.0208333333333333
 43
0.0
 43
0.0
 43
0.0
 43
0.0
 43
1.0
 43
0.0
 43
0.0
 43
0.0
 43
0.0
 43
1.0
 77
     0
 47
0.0208333333333333
 47
0.0
 47
0.0
 47
0.0
 47
0.0
 47
0.0208333333333333
 47
0.0
 47
0.0
 47
0.0
 47
0.0
 47
1.0
 47
0.0
 47
0.0
 47
0.0
 47
0.0
 47
1.0
171
     0
 49
0.0208333333333333
 49
0.0
 49
0.0
 49
0.0
 49
0.0
 49
0.0208333333333333
 49
0.0
 49
0.0
 49
0.0
 49
0.0
 49
1.0
 49
0.0
 49
0.0
 49
0.0
 49
0.0
 49
1.0
175
     0
142
0.0208333333333333
142
0.0
142
0.0
142
0.0
142
0.0
142
0.0208333333333333
142
0.0
142
0.0
142
0.0
142
0.0
142
1.0
142
0.0
142
0.0
142
0.0
142
0.0
142
1.0
179
     0
144
0.0208333333333333
144
0.0
144
0.0
144
0.0
144
0.0
144
0.0208333333333333
144
0.0
144
0.0
144
0.0
144
0.0
144
1.0
144
0.0
144
0.0
144
0.0
144
0.0
144
1.0
147
0.0208333333333333
147
0.0
147
0.0
147
0.0
147
0.0
147
0.0208333333333333
147
0.0
147
0.0
147
0.0
147
0.0
147
1.0
147
0.0
147
0.0
147
0.0
147
0.0
147
1.0
  0
MLEADERSTYLE
  5
67
102
{ACAD_REACTORS
330
66
102
}
330
66
100
AcDbMLeaderStyle
179
     2
170
     2
171
     1
172
     0
 90
        2
 40
0.0
 41
0.0
173
     1
 91
-1056964608
340
5B
 92
       -2
290
     1
 42
0.09
291
     1
 43
0.36
  3
Standard
 44
0.18
300

342
55
174
     1
178
     6
175
     1
176
     0
 93
-1056964608
 45
0.18
292
     0
297
     0
 46
0.18
 94
-1056964608
 47
1.0
 49
1.0
140
1.0
293
     1
141
0.0
294
     1
177
     0
142
1.0
295
     1
296
     0
143
0.125
271
     0
272
     9
273
     9
298
     1
  0
MLINESTYLE
  5
60
102
{ACAD_REACTORS
330
5F
102
}
330
5F
100
AcDbMlineStyle
  2
STANDARD
 70
     0
  3

 62
   256
 51
90.0
 52
90.0
 71
     2
 49
0.5
 62
   256
  6
BYLAYER
 49
-0.5
 62
   256
  6
BYLAYER
  0
ACDBPLACEHOLDER
  5
F
102
{ACAD_REACTORS
330
E
102
}
330
E
  0
SCALE
  5
43
102
{ACAD_REACTORS
330
42
102
}
330
42
100
AcDbScale
 70
     0
300
1:1
140
1.0
141
1.0
290
     1
  0
SCALE
  5
44
102
{ACAD_REACTORS
330
42
102
}
330
42
100
AcDbScale
 70
     0
300
1/128" = 1'-0"
140
0.0078125
141
12.0
290
     0
  0
SCALE
  5
45
102
{ACAD_REACTORS
330
42
102
}
330
42
100
AcDbScale
 70
     0
300
1/64" = 1'-0"
140
0.015625
141
12.0
290
     0
  0
SCALE
  5
46
102
{ACAD_REACTORS
330
42
102
}
330
42
100
AcDbScale
 70
     0
300
1/32" = 1'-0"
140
0.03125
141
12.0
290
     0
  0
SCALE
  5
47
102
{ACAD_REACTORS
330
42
102
}
330
42
100
AcDbScale
 70
     0
300
1/16" = 1'-0"
140
0.0625
141
12.0
290
     0
  0
SCALE
  5
48
102
{ACAD_REACTORS
330
42
102
}
330
42
100
AcDbScale
 70
     0
300
3/32" = 1'-0"
140
0.09375
141
12.0
290
     0
  0
SCALE
  5
49
102
{ACAD_REACTORS
330
42
102
}
330
42
100
AcDbScale
 70
     0
300
1/8" = 1'-0"
140
0.125
141
12.0
290
     0
  0
SCALE
  5
4A
102
{ACAD_REACTORS
330
42
102
}
330
42
100
AcDbScale
 70
     0
300
3/16" = 1'-0"
140
0.1875
141
12.0
290
     0
  0
SCALE
  5
4B
102
{ACAD_REACTORS
330
42
102
}
330
42
100
AcDbScale
 70
     0
300
1/4" = 1'-0"
140
0.25
141
12.0
290
     0
  0
SCALE
  5
4C
102
{ACAD_REACTORS
330
42
102
}
330
42
100
AcDbScale
 70
     0
300
3/8" = 1'-0"
140
0.375
141
12.0
290
     0
  0
SCALE
  5
4D
102
{ACAD_REACTORS
330
42
102
}
330
42
100
AcDbScale
 70
     0
300
1/2" = 1'-0"
140
0.5
141
12.0
290
     0
  0
SCALE
  5
4E
102
{ACAD_REACTORS
330
42
102
}
330
42
100
AcDbScale
 70
     0
300
3/4" = 1'-0"
140
0.75
141
12.0
290
     0
  0
SCALE
  5
4F
102
{ACAD_REACTORS
330
42
102
}
330
42
100
AcDbScale
 70
     0
300
1" = 1'-0"
140
1.0
141
12.0
290
     0
  0
SCALE
  5
50
102
{ACAD_REACTORS
330
42
102
}
330
42
100
AcDbScale
 70
     0
300
1-1/2" = 1'-0"
140
1.5
141
12.0
290
     0
  0
SCALE
  5
51
102
{ACAD_REACTORS
330
42
102
}
330
42
100
AcDbScale
 70
     0
300
3" = 1'-0"
140
3.0
141
12.0
290
     0
  0
SCALE
  5
52
102
{ACAD_REACTORS
330
42
102
}
330
42
100
AcDbScale
 70
     0
300
6" = 1'-0"
140
6.0
141
12.0
290
     0
  0
SCALE
  5
53
102
{ACAD_REACTORS
330
42
102
}
330
42
100
AcDbScale
 70
     0
300
1'-0" = 1'-0"
140
12.0
141
12.0
290
     0
  0
ACDBSECTIONVIEWSTYLE
  5
69
102
{ACAD_REACTORS
330
68
102
}
330
68
100
AcDbModelDocViewStyle
 70
     0
  3
Imperial24
290
     1
300
Imperial24
 90
        0
100
AcDbSectionViewStyle
 70
     0
 71
     0
 90
       78
 71
     1
340
55
 62
   256
 40
0.24
340
0
340
0
 62
   256
 40
0.24
300
I, O, Q, S, X, Z
 40
0.48
 90
        3
 40
0.18
 90
        1
 71
     2
340
5D
 90
       25
 62
   256
340
5D
 90
       50
 62
   256
 40
0.24
 40
0.0
 40
0.24
 71
     3
340
55
 62
   256
 40
0.24
 90
        1
 40
0.75
 90
        1
300
%<\AcVar ViewType \f "%tc1">% %<\AcVar ViewSectionStartId>%-%<\AcVar ViewSectionEndId>%\PSCALE %<\AcVar ViewScale \f "%sn">%
 71
     4
 62
   256
 62
   257
300
ANSI31
 40
1.0
 90
        0
290
     0
290
     0
 90
        6
 40
0.0
 40
1.570796326794896
 40
0.2617993877991494
 40
1.308996938995747
 40
-0.2617993877991494
 40
1.832595714594046
  0
TABLESTYLE
  5
65
102
{ACAD_XDICTIONARY
360
A6
102
}
102
{ACAD_REACTORS
330
64
102
}
330
64
100
AcDbTableStyle
280
     0
  3
Standard
 70
     0
 71
     0
 40
0.06
 41
0.06
280
     0
281
     0
  7
Standard
140
0.18
170
     2
 62
     0
 63
     7
283
     0
 90
      512
 91
        0
  1

274
    -2
284
     1
 64
     0
275
    -2
285
     1
 65
     0
276
    -2
286
     1
 66
     0
277
    -2
287
     1
 67
     0
278
    -2
288
     1
 68
     0
279
    -2
289
     1
 69
     0
  7
Standard
140
0.25
170
     5
 62
     0
 63
     7
283
     0
 90
      512
 91
        0
  1

274
    -2
284
     1
 64
     0
275
    -2
285
     1
 65
     0
276
    -2
286
     1
 66
     0
277
    -2
287
     1
 67
     0
278
    -2
288
     1
 68
     0
279
    -2
289
     1
 69
     0
  7
Standard
140
0.18
170
     5
 62
     0
 63
     7
283
     0
 90
      512
 91
        0
  1

274
    -2
284
     1
 64
     0
275
    -2
285
     1
 65
     0
276
    -2
286
     1
 66
     0
277
    -2
287
     1
 67
     0
278
    -2
288
     1
 68
     0
279
    -2
289
     1
 69
     0
  0
VISUALSTYLE
  5
2F
102
{ACAD_REACTORS
330
29
102
}
330
29
100
AcDbVisualStyle
  2
2dWireframe
 70
     4
177
     3
291
     0
 70
    58
 90
        0
176
     1
 90
        2
176
     1
 90
        0
176
     1
 90
        0
176
     1
 40
0.6
176
     1
 40
30.0
176
     1
 62
     7
420
 16777215
176
     1
 90
        1
176
     1
 90
        4
176
     1
 62
     7
176
     1
 62
   257
176
     1
 90
        1
176
     1
 90
        1
176
     1
 40
1.0
176
     1
 90
        0
176
     1
 62
   257
176
     1
 40
1.0
176
     1
 90
        1
176
     1
 90
        6
176
     1
 90
        2
176
     1
 62
     7
176
     1
 90
        5
176
     1
 90
        0
176
     1
 90
        0
176
     1
290
     0
176
     1
 90
        1
176
     1
 40
0.0
176
     1
 90
        0
176
     1
290
     1
176
     1
290
     1
176
     1
290
     0
176
     1
290
     0
176
     1
290
     0
176
     1
290
     0
176
     1
290
     0
176
     1
290
     0
176
     1
290
     0
176
     1
 90
       50
176
     1
 40
0.0
176
     1
 40
1.0
176
     1
 90
        0
176
     1
 62
    18
420
        0
176
     1
 90
       50
176
     1
 90
        3
176
     1
 62
     5
420
      255
176
     1
290
     0
176
     1
 90
       50
176
     1
 90
       50
176
     1
 90
       50
176
     1
290
     0
176
     1
 90
       50
176
     1
 62
   256
176
     0
 40
1.0
176
     0
 90
        2
176
     1
  1
strokes_ogs.tif
176
     1
290
     0
176
     1
 40
1.0
176
     1
 40
1.0
176
     1
  0
VISUALSTYLE
  5
2E
102
{ACAD_REACTORS
330
29
102
}
330
29
100
AcDbVisualStyle
  2
Basic
 70
     7
177
     3
291
     1
 70
    58
 90
        1
176
     1
 90
        0
176
     1
 90
        1
176
     1
 90
        0
176
     1
 40
0.6
176
     1
 40
30.0
176
     1
 62
     7
420
 16777215
176
     1
 90
        0
176
     1
 90
        4
176
     1
 62
     7
176
     1
 62
   257
176
     1
 90
        1
176
     1
 90
        1
176
     1
 40
1.0
176
     1
 90
        8
176
     1
 62
     7
176
     1
 40
1.0
176
     1
 90
        1
176
     1
 90
        6
176
     1
 90
        2
176
     1
 62
     7
176
     1
 90
        5
176
     1
 90
        0
176
     1
 90
        0
176
     1
290
     0
176
     1
 90
        1
176
     1
 40
0.0
176
     1
 90
        0
176
     1
290
     0
176
     1
290
     1
176
     1
290
     1
176
     1
290
     0
176
     1
290
     0
176
     1
290
     0
176
     1
290
     0
176
     1
290
     0
176
     1
290
     0
176
     1
 90
       50
176
     1
 40
0.0
176
     1
 40
1.0
176
     1
 90
        0
176
     1
 62
    18
420
        0
176
     1
 90
       50
176
     1
 90
        3
176
     1
 62
     5
420
      255
176
     1
290
     0
176
     1
 90
       50
176
     1
 90
       50
176
     1
 90
       50
176
     1
290
     0
176
     1
 90
       50
176
     1
 62
   256
176
     0
 40
1.0
176
     0
 90
        2
176
     1
  1
strokes_ogs.tif
176
     1
290
     0
176
     1
 40
1.0
176
     1
 40
1.0
176
     1
  0
VISUALSTYLE
  5
35
102
{ACAD_REACTORS
330
29
102
}
330
29
100
AcDbVisualStyle
  2
Brighten
 70
    12
177
     3
291
     1
 70
    58
 90
        2
176
     1
 90
        2
176
     1
 90
        0
176
     1
 90
        0
176
     1
 40
0.6
176
     1
 40
30.0
176
     1
 62
     7
420
 16777215
176
     1
 90
        1
176
     1
 90
        4
176
     1
 62
     7
176
     1
 62
   257
176
     1
 90
        1
176
     1
 90
        1
176
     1
 40
1.0
176
     1
 90
        8
176
     1
 62
     7
176
     1
 40
1.0
176
     1
 90
        1
176
     1
 90
        6
176
     1
 90
        2
176
     1
 62
     7
176
     1
 90
        5
176
     1
 90
        0
176
     1
 90
        0
176
     1
290
     0
176
     1
 90
        1
176
     1
 40
50.0
176
     1
 90
        0
176
     1
290
     0
176
     1
290
     1
176
     1
290
     1
176
     1
290
     0
176
     1
290
     0
176
     1
290
     0
176
     1
290
     0
176
     1
290
     0
176
     1
290
     0
176
     1
 90
       50
176
     1
 40
0.0
176
     1
 40
1.0
176
     1
 90
        0
176
     1
 62
    18
420
        0
176
     1
 90
       50
176
     1
 90
        3
176
     1
 62
     5
420
      255
176
     1
290
     0
176
     1
 90
       50
176
     1
 90
       50
176
     1
 90
       50
176
     1
290
     0
176
     1
 90
       50
176
     1
 62
   256
176
     0
 40
1.0
176
     0
 90
        2
176
     1
  1
strokes_ogs.tif
176
     1
290
     0
176
     1
 40
1.0
176
     1
 40
1.0
176
     1
  0
VISUALSTYLE
  5
39
102
{ACAD_REACTORS
330
29
102
}
330
29
100
AcDbVisualStyle
  2
ColorChange
 70
    16
177
     3
291
     1
 70
    58
 90
        2
176
     1
 90
        2
176
     1
 90
        3
176
     1
 90
        0
176
     1
 40
0.6
176
     1
 40
30.0
176
     1
 62
     8
420
  8421504
176
     1
 90
        1
176
     1
 90
        4
176
     1
 62
     7
176
     1
 62
   257
176
     1
 90
        1
176
     1
 90
        1
176
     1
 40
1.0
176
     1
 90
        8
176
     1
 62
     8
420
  8421504
176
     1
 40
1.0
176
     1
 90
        1
176
     1
 90
        6
176
     1
 90
        2
176
     1
 62
     7
176
     1
 90
        5
176
     1
 90
        0
176
     1
 90
        0
176
     1
290
     0
176
     1
 90
        1
176
     1
 40
0.0
176
     1
 90
        0
176
     1
290
     0
176
     1
290
     1
176
     1
290
     1
176
     1
290
     0
176
     1
290
     0
176
     1
290
     0
176
     1
290
     0
176
     1
290
     0
176
     1
290
     0
176
     1
 90
       50
176
     1
 40
0.0
176
     1
 40
1.0
176
     1
 90
        0
176
     1
 62
    18
420
        0
176
     1
 90
       50
176
     1
 90
        3
176
     1
 62
     5
420
      255
176
     1
290
     0
176
     1
 90
       50
176
     1
 90
       50
176
     1
 90
       50
176
     1
290
     0
176
     1
 90
       50
176
     1
 62
   256
176
     0
 40
1.0
176
     0
 90
        2
176
     1
  1
strokes_ogs.tif
176
     1
290
     0
176
     1
 40
1.0
176
     1
 40
1.0
176
     1
  0
VISUALSTYLE
  5
32
102
{ACAD_REACTORS
330
29
102
}
330
29
100
AcDbVisualStyle
  2
Conceptual
 70
     9
177
     3
291
     0
 70
    58
 90
        3
176
     1
 90
        2
176
     1
 90
        0
176
     1
 90
        0
176
     1
 40
0.6
176
     1
 40
30.0
176
     1
 62
     7
420
 16777215
176
     1
 90
        2
176
     1
 90
        2
176
     1
 62
     7
176
     1
 62
   257
176
     1
 90
        1
176
     1
 90
        1
176
     1
 40
179.0
176
     1
 90
        8
176
     1
 62
     7
176
     1
 40
1.0
176
     1
 90
        1
176
     1
 90
        6
176
     1
 90
        2
176
     1
 62
     7
176
     1
 90
        3
176
     1
 90
        0
176
     1
 90
        0
176
     1
290
     0
176
     1
 90
        1
176
     1
 40
0.0
176
     1
 90
        0
176
     1
290
     0
176
     1
290
     1
176
     1
290
     1
176
     1
290
     0
176
     1
290
     0
176
     1
290
     0
176
     1
290
     0
176
     1
290
     0
176
     1
290
     0
176
     1
 90
       50
176
     1
 40
0.0
176
     1
 40
1.0
176
     1
 90
        0
176
     1
 62
    18
420
        0
176
     1
 90
       50
176
     1
 90
        3
176
     1
 62
     5
420
      255
176
     1
290
     0
176
     1
 90
       50
176
     1
 90
       50
176
     1
 90
       50
176
     1
290
     0
176
     1
 90
       50
176
     1
 62
   256
176
     0
 40
1.0
176
     0
 90
        2
176
     1
  1
strokes_ogs.tif
176
     1
290
     0
176
     1
 40
1.0
176
     1
 40
1.0
176
     1
  0
VISUALSTYLE
  5
34
102
{ACAD_REACTORS
330
29
102
}
330
29
100
AcDbVisualStyle
  2
Dim
 70
    11
177
     3
291
     1
 70
    58
 90
        2
176
     1
 90
        2
176
     1
 90
        0
176
     1
 90
        0
176
     1
 40
0.6
176
     1
 40
30.0
176
     1
 62
     7
420
 16777215
176
     1
 90
        1
176
     1
 90
        4
176
     1
 62
     7
176
     1
 62
   257
176
     1
 90
        1
176
     1
 90
        1
176
     1
 40
1.0
176
     1
 90
        8
176
     1
 62
     7
176
     1
 40
1.0
176
     1
 90
        1
176
     1
 90
        6
176
     1
 90
        2
176
     1
 62
     7
176
     1
 90
        5
176
     1
 90
        0
176
     1
 90
        0
176
     1
290
     0
176
     1
 90
        1
176
     1
 40
-50.0
176
     1
 90
        0
176
     1
290
     0
176
     1
290
     1
176
     1
290
     1
176
     1
290
     0
176
     1
290
     0
176
     1
290
     0
176
     1
290
     0
176
     1
290
     0
176
     1
290
     0
176
     1
 90
       50
176
     1
 40
0.0
176
     1
 40
1.0
176
     1
 90
        0
176
     1
 62
    18
420
        0
176
     1
 90
       50
176
     1
 90
        3
176
     1
 62
     5
420
      255
176
     1
290
     0
176
     1
 90
       50
176
     1
 90
       50
176
     1
 90
       50
176
     1
290
     0
176
     1
 90
       50
176
     1
 62
   256
176
     0
 40
1.0
176
     0
 90
        2
176
     1
  1
strokes_ogs.tif
176
     1
290
     0
176
     1
 40
1.0
176
     1
 40
1.0
176
     1
  0
VISUALSTYLE
  5
41
102
{ACAD_REACTORS
330
29
102
}
330
29
100
AcDbVisualStyle
  2
EdgeColorOff
 70
    22
177
     3
291
     1
 70
    58
 90
        2
176
     0
 90
        2
176
     0
 90
        0
176
     0
 90
        0
176
     0
 40
0.6
176
     0
 40
30.0
176
     0
 62
     7
420
 16777215
176
     0
 90
        1
176
     0
 90
        4
176
     0
 62
     7
176
     0
 62
   257
176
     0
 90
        1
176
     0
 90
        1
176
     0
 40
1.0
176
     0
 90
        8
176
     2
 62
     7
176
     0
 40
1.0
176
     0
 90
        1
176
     0
 90
        6
176
     0
 90
        2
176
     0
 62
     7
176
     0
 90
        5
176
     0
 90
        0
176
     0
 90
        0
176
     0
290
     0
176
     0
 90
        1
176
     0
 40
0.0
176
     0
 90
        0
176
     0
290
     0
176
     0
290
     1
176
     0
290
     1
176
     0
290
     0
176
     0
290
     0
176
     0
290
     0
176
     0
290
     0
176
     0
290
     0
176
     0
290
     0
176
     0
 90
       50
176
     0
 40
0.0
176
     0
 40
1.0
176
     0
 90
        0
176
     0
 62
    18
420
        0
176
     0
 90
       50
176
     0
 90
        3
176
     0
 62
     5
420
      255
176
     0
290
     0
176
     0
 90
       50
176
     0
 90
       50
176
     0
 90
       50
176
     0
290
     0
176
     0
 90
       50
176
     0
 62
   256
176
     0
 40
1.0
176
     0
 90
        2
176
     0
  1
strokes_ogs.tif
176
     0
290
     0
176
     0
 40
1.0
176
     0
 40
1.0
176
     0
  0
VISUALSTYLE
  5
38
102
{ACAD_REACTORS
330
29
102
}
330
29
100
AcDbVisualStyle
  2
Facepattern
 70
    15
177
     3
291
     1
 70
    58
 90
        2
176
     1
 90
        2
176
     1
 90
        0
176
     1
 90
        0
176
     1
 40
0.6
176
     1
 40
30.0
176
     1
 62
     7
420
 16777215
176
     1
 90
        1
176
     1
 90
        4
176
     1
 62
     7
176
     1
 62
   257
176
     1
 90
        1
176
     1
 90
        1
176
     1
 40
1.0
176
     1
 90
        8
176
     1
 62
     7
176
     1
 40
1.0
176
     1
 90
        1
176
     1
 90
        6
176
     1
 90
        2
176
     1
 62
     7
176
     1
 90
        5
176
     1
 90
        0
176
     1
 90
        0
176
     1
290
     0
176
     1
 90
        1
176
     1
 40
0.0
176
     1
 90
        0
176
     1
290
     0
176
     1
290
     1
176
     1
290
     1
176
     1
290
     0
176
     1
290
     0
176
     1
290
     0
176
     1
290
     0
176
     1
290
     0
176
     1
290
     0
176
     1
 90
       50
176
     1
 40
0.0
176
     1
 40
1.0
176
     1
 90
        0
176
     1
 62
    18
420
        0
176
     1
 90
       50
176
     1
 90
        3
176
     1
 62
     5
420
      255
176
     1
290
     0
176
     1
 90
       50
176
     1
 90
       50
176
     1
 90
       50
176
     1
290
     0
176
     1
 90
       50
176
     1
 62
   256
176
     0
 40
1.0
176
     0
 90
        2
176
     1
  1
strokes_ogs.tif
176
     1
290
     0
176
     1
 40
1.0
176
     1
 40
1.0
176
     1
  0
VISUALSTYLE
  5
2A
102
{ACAD_REACTORS
330
29
102
}
330
29
100
AcDbVisualStyle
  2
Flat
 70
     0
177
     3
291
     1
 70
    58
 90
        2
176
     1
 90
        1
176
     1
 90
        1
176
     1
 90
        2
176
     1
 40
0.6
176
     1
 40
30.0
176
     1
 62
     7
420
 16777215
176
     1
 90
        0
176
     1
 90
        0
176
     1
 62
     7
176
     1
 62
   257
176
     1
 90
        1
176
     1
 90
        1
176
     1
 40
1.0
176
     1
 90
        8
176
     1
 62
     7
176
     1
 40
1.0
176
     1
 90
        1
176
     1
 90
        6
176
     1
 90
        2
176
     1
 62
     7
176
     1
 90
        5
176
     1
 90
        0
176
     1
 90
        0
176
     1
290
     0
176
     1
 90
       13
176
     1
 40
0.0
176
     1
 90
        0
176
     1
290
     0
176
     1
290
     1
176
     1
290
     1
176
     1
290
     0
176
     1
290
     0
176
     1
290
     0
176
     1
290
     0
176
     1
290
     0
176
     1
290
     0
176
     1
 90
       50
176
     1
 40
0.0
176
     1
 40
1.0
176
     1
 90
        0
176
     1
 62
    18
420
        0
176
     1
 90
       50
176
     1
 90
        3
176
     1
 62
     5
420
      255
176
     1
290
     0
176
     1
 90
       50
176
     1
 90
       50
176
     1
 90
       50
176
     1
290
     0
176
     1
 90
       50
176
     1
 62
   256
176
     0
 40
1.0
176
     0
 90
        2
176
     1
  1
strokes_ogs.tif
176
     1
290
     0
176
     1
 40
1.0
176
     1
 40
1.0
176
     1
  0
VISUALSTYLE
  5
2B
102
{ACAD_REACTORS
330
29
102
}
330
29
100
AcDbVisualStyle
  2
FlatWithEdges
 70
     1
177
     3
291
     1
 70
    58
 90
        2
176
     1
 90
        1
176
     1
 90
        1
176
     1
 90
        2
176
     1
 40
0.6
176
     1
 40
30.0
176
     1
 62
     7
420
 16777215
176
     1
 90
        1
176
     1
 90
        0
176
     1
 62
     7
176
     1
 62
   257
176
     1
 90
        1
176
     1
 90
        1
176
     1
 40
1.0
176
     1
 90
        0
176
     1
 62
   257
176
     1
 40
1.0
176
     1
 90
        1
176
     1
 90
        6
176
     1
 90
        2
176
     1
 62
     7
176
     1
 90
        5
176
     1
 90
        0
176
     1
 90
        0
176
     1
290
     0
176
     1
 90
       13
176
     1
 40
0.0
176
     1
 90
        0
176
     1
290
     0
176
     1
290
     1
176
     1
290
     1
176
     1
290
     0
176
     1
290
     0
176
     1
290
     0
176
     1
290
     0
176
     1
290
     0
176
     1
290
     0
176
     1
 90
       50
176
     1
 40
0.0
176
     1
 40
1.0
176
     1
 90
        0
176
     1
 62
    18
420
        0
176
     1
 90
       50
176
     1
 90
        3
176
     1
 62
     5
420
      255
176
     1
290
     0
176
     1
 90
       50
176
     1
 90
       50
176
     1
 90
       50
176
     1
290
     0
176
     1
 90
       50
176
     1
 62
   256
176
     0
 40
1.0
176
     0
 90
        2
176
     1
  1
strokes_ogs.tif
176
     1
290
     0
176
     1
 40
1.0
176
     1
 40
1.0
176
     1
  0
VISUALSTYLE
  5
2C
102
{ACAD_REACTORS
330
29
102
}
330
29
100
AcDbVisualStyle
  2
Gouraud
 70
     2
177
     3
291
     1
 70
    58
 90
        2
176
     1
 90
        2
176
     1
 90
        1
176
     1
 90
        2
176
     1
 40
0.6
176
     1
 40
30.0
176
     1
 62
     7
420
 16777215
176
     1
 90
        0
176
     1
 90
        0
176
     1
 62
     7
176
     1
 62
   257
176
     1
 90
        1
176
     1
 90
        1
176
     1
 40
1.0
176
     1
 90
        0
176
     1
 62
     7
176
     1
 40
1.0
176
     1
 90
        1
176
     1
 90
        6
176
     1
 90
        2
176
     1
 62
     7
176
     1
 90
        5
176
     1
 90
        0
176
     1
 90
        0
176
     1
290
     0
176
     1
 90
       13
176
     1
 40
0.0
176
     1
 90
        0
176
     1
290
     0
176
     1
290
     1
176
     1
290
     1
176
     1
290
     0
176
     1
290
     0
176
     1
290
     0
176
     1
290
     0
176
     1
290
     0
176
     1
290
     0
176
     1
 90
       50
176
     1
 40
0.0
176
     1
 40
1.0
176
     1
 90
        0
176
     1
 62
    18
420
        0
176
     1
 90
       50
176
     1
 90
        3
176
     1
 62
     5
420
      255
176
     1
290
     0
176
     1
 90
       50
176
     1
 90
       50
176
     1
 90
       50
176
     1
290
     0
176
     1
 90
       50
176
     1
 62
   256
176
     0
 40
1.0
176
     0
 90
        2
176
     1
  1
strokes_ogs.tif
176
     1
290
     0
176
     1
 40
1.0
176
     1
 40
1.0
176
     1
  0
VISUALSTYLE
  5
2D
102
{ACAD_REACTORS
330
29
102
}
330
29
100
AcDbVisualStyle
  2
GouraudWithEdges
 70
     3
177
     3
291
     1
 70
    58
 90
        2
176
     1
 90
        2
176
     1
 90
        1
176
     1
 90
        2
176
     1
 40
0.6
176
     1
 40
30.0
176
     1
 62
     7
420
 16777215
176
     1
 90
        1
176
     1
 90
        0
176
     1
 62
     7
176
     1
 62
   257
176
     1
 90
        1
176
     1
 90
        1
176
     1
 40
1.0
176
     1
 90
        0
176
     1
 62
   257
176
     1
 40
1.0
176
     1
 90
        1
176
     1
 90
        6
176
     1
 90
        2
176
     1
 62
     7
176
     1
 90
        5
176
     1
 90
        0
176
     1
 90
        0
176
     1
290
     0
176
     1
 90
       13
176
     1
 40
0.0
176
     1
 90
        0
176
     1
290
     0
176
     1
290
     1
176
     1
290
     1
176
     1
290
     0
176
     1
290
     0
176
     1
290
     0
176
     1
290
     0
176
     1
290
     0
176
     1
290
     0
176
     1
 90
       50
176
     1
 40
0.0
176
     1
 40
1.0
176
     1
 90
        0
176
     1
 62
    18
420
        0
176
     1
 90
       50
176
     1
 90
        3
176
     1
 62
     5
420
      255
176
     1
290
     0
176
     1
 90
       50
176
     1
 90
       50
176
     1
 90
       50
176
     1
290
     0
176
     1
 90
       50
176
     1
 62
   256
176
     0
 40
1.0
176
     0
 90
        2
176
     1
  1
strokes_ogs.tif
176
     1
290
     0
176
     1
 40
1.0
176
     1
 40
1.0
176
     1
  0
VISUALSTYLE
  5
31
102
{ACAD_REACTORS
330
29
102
}
330
29
100
AcDbVisualStyle
  2
Hidden
 70
     6
177
     3
291
     0
 70
    58
 90
        1
176
     1
 90
        2
176
     1
 90
        2
176
     1
 90
        0
176
     1
 40
0.6
176
     1
 40
30.0
176
     1
 62
     7
420
 16777215
176
     1
 90
        2
176
     1
 90
        2
176
     1
 62
     7
176
     1
 62
   257
176
     1
 90
        2
176
     1
 90
        1
176
     1
 40
40.0
176
     1
 90
        0
176
     1
 62
   257
176
     1
 40
1.0
176
     1
 90
        1
176
     1
 90
        6
176
     1
 90
        2
176
     1
 62
     7
176
     1
 90
        3
176
     1
 90
        0
176
     1
 90
        0
176
     1
290
     0
176
     1
 90
        1
176
     1
 40
0.0
176
     1
 90
        0
176
     1
290
     0
176
     1
290
     1
176
     1
290
     1
176
     1
290
     0
176
     1
290
     0
176
     1
290
     0
176
     1
290
     0
176
     1
290
     0
176
     1
290
     0
176
     1
 90
       50
176
     1
 40
0.0
176
     1
 40
1.0
176
     1
 90
        0
176
     1
 62
    18
420
        0
176
     1
 90
       50
176
     1
 90
        3
176
     1
 62
     5
420
      255
176
     1
290
     0
176
     1
 90
       50
176
     1
 90
       50
176
     1
 90
       50
176
     1
290
     0
176
     1
 90
       50
176
     1
 62
   256
176
     0
 40
1.0
176
     0
 90
        2
176
     1
  1
strokes_ogs.tif
176
     1
290
     0
176
     1
 40
1.0
176
     1
 40
1.0
176
     1
  0
VISUALSTYLE
  5
3F
102
{ACAD_REACTORS
330
29
102
}
330
29
100
AcDbVisualStyle
  2
JitterOff
 70
    20
177
     3
291
     1
 70
    58
 90
        2
176
     0
 90
        2
176
     0
 90
        0
176
     0
 90
        0
176
     0
 40
0.6
176
     0
 40
30.0
176
     0
 62
     7
420
 16777215
176
     0
 90
        1
176
     0
 90
        4
176
     0
 62
     7
176
     0
 62
   257
176
     0
 90
        1
176
     0
 90
        1
176
     0
 40
1.0
176
     0
 90
       10
176
     2
 62
     7
176
     0
 40
1.0
176
     0
 90
        1
176
     0
 90
        6
176
     0
 90
        2
176
     0
 62
     7
176
     0
 90
        5
176
     0
 90
        0
176
     0
 90
        0
176
     0
290
     0
176
     0
 90
        1
176
     0
 40
0.0
176
     0
 90
        0
176
     0
290
     0
176
     0
290
     1
176
     0
290
     1
176
     0
290
     0
176
     0
290
     0
176
     0
290
     0
176
     0
290
     0
176
     0
290
     0
176
     0
290
     0
176
     0
 90
       50
176
     0
 40
0.0
176
     0
 40
1.0
176
     0
 90
        0
176
     0
 62
    18
420
        0
176
     0
 90
       50
176
     0
 90
        3
176
     0
 62
     5
420
      255
176
     0
290
     0
176
     0
 90
       50
176
     0
 90
       50
176
     0
 90
       50
176
     0
290
     0
176
     0
 90
       50
176
     0
 62
   256
176
     0
 40
1.0
176
     0
 90
        2
176
     0
  1
strokes_ogs.tif
176
     0
290
     0
176
     0
 40
1.0
176
     0
 40
1.0
176
     0
  0
VISUALSTYLE
  5
37
102
{ACAD_REACTORS
330
29
102
}
330
29
100
AcDbVisualStyle
  2
Linepattern
 70
    14
177
     3
291
     1
 70
    58
 90
        2
176
     1
 90
        2
176
     1
 90
        0
176
     1
 90
        0
176
     1
 40
0.6
176
     1
 40
30.0
176
     1
 62
     7
420
 16777215
176
     1
 90
        1
176
     1
 90
        4
176
     1
 62
     7
176
     1
 62
   257
176
     1
 90
        7
176
     1
 90
        7
176
     1
 40
1.0
176
     1
 90
        8
176
     1
 62
     7
176
     1
 40
1.0
176
     1
 90
        1
176
     1
 90
        6
176
     1
 90
        2
176
     1
 62
     7
176
     1
 90
        5
176
     1
 90
        0
176
     1
 90
        0
176
     1
290
     0
176
     1
 90
        1
176
     1
 40
0.0
176
     1
 90
        0
176
     1
290
     0
176
     1
290
     1
176
     1
290
     1
176
     1
290
     0
176
     1
290
     0
176
     1
290
     0
176
     1
290
     0
176
     1
290
     0
176
     1
290
     0
176
     1
 90
       50
176
     1
 40
0.0
176
     1
 40
1.0
176
     1
 90
        0
176
     1
 62
    18
420
        0
176
     1
 90
       50
176
     1
 90
        3
176
     1
 62
     5
420
      255
176
     1
290
     0
176
     1
 90
       50
176
     1
 90
       50
176
     1
 90
       50
176
     1
290
     0
176
     1
 90
       50
176
     1
 62
   256
176
     0
 40
1.0
176
     0
 90
        2
176
     1
  1
strokes_ogs.tif
176
     1
290
     0
176
     1
 40
1.0
176
     1
 40
1.0
176
     1
  0
VISUALSTYLE
  5
40
102
{ACAD_REACTORS
330
29
102
}
330
29
100
AcDbVisualStyle
  2
OverhangOff
 70
    21
177
     3
291
     1
 70
    58
 90
        2
176
     0
 90
        2
176
     0
 90
        0
176
     0
 90
        0
176
     0
 40
0.6
176
     0
 40
30.0
176
     0
 62
     7
420
 16777215
176
     0
 90
        1
176
     0
 90
        4
176
     0
 62
     7
176
     0
 62
   257
176
     0
 90
        1
176
     0
 90
        1
176
     0
 40
1.0
176
     0
 90
        9
176
     2
 62
     7
176
     0
 40
1.0
176
     0
 90
        1
176
     0
 90
        6
176
     0
 90
        2
176
     0
 62
     7
176
     0
 90
        5
176
     0
 90
        0
176
     0
 90
        0
176
     0
290
     0
176
     0
 90
        1
176
     0
 40
0.0
176
     0
 90
        0
176
     0
290
     0
176
     0
290
     1
176
     0
290
     1
176
     0
290
     0
176
     0
290
     0
176
     0
290
     0
176
     0
290
     0
176
     0
290
     0
176
     0
290
     0
176
     0
 90
       50
176
     0
 40
0.0
176
     0
 40
1.0
176
     0
 90
        0
176
     0
 62
    18
420
        0
176
     0
 90
       50
176
     0
 90
        3
176
     0
 62
     5
420
      255
176
     0
290
     0
176
     0
 90
       50
176
     0
 90
       50
176
     0
 90
       50
176
     0
290
     0
176
     0
 90
       50
176
     0
 62
   256
176
     0
 40
1.0
176
     0
 90
        2
176
     0
  1
strokes_ogs.tif
176
     0
290
     0
176
     0
 40
1.0
176
     0
 40
1.0
176
     0
  0
VISUALSTYLE
  5
33
102
{ACAD_REACTORS
330
29
102
}
330
29
100
AcDbVisualStyle
  2
Realistic
 70
     8
177
     3
291
     0
 70
    58
 90
        2
176
     1
 90
        3
176
     1
 90
        0
176
     1
 90
        2
176
     1
 40
0.6
176
     1
 40
30.0
176
     1
 62
     7
420
 16777215
176
     1
 90
        0
176
     1
 90
        0
176
     1
 62
     7
176
     1
 62
   257
176
     1
 90
        1
176
     1
 90
        1
176
     1
 40
1.0
176
     1
 90
        8
176
     1
 62
   257
176
     1
 40
1.0
176
     1
 90
        1
176
     1
 90
        6
176
     1
 90
        2
176
     1
 62
     7
176
     1
 90
        3
176
     1
 90
        0
176
     1
 90
        0
176
     1
290
     0
176
     1
 90
       13
176
     1
 40
0.0
176
     1
 90
        0
176
     1
290
     0
176
     1
290
     1
176
     1
290
     1
176
     1
290
     0
176
     1
290
     0
176
     1
290
     0
176
     1
290
     0
176
     1
290
     0
176
     1
290
     0
176
     1
 90
       50
176
     1
 40
0.0
176
     1
 40
1.0
176
     1
 90
        0
176
     1
 62
    18
420
        0
176
     1
 90
       50
176
     1
 90
        3
176
     1
 62
     5
420
      255
176
     1
290
     0
176
     1
 90
       50
176
     1
 90
       50
176
     1
 90
       50
176
     1
290
     0
176
     1
 90
       50
176
     1
 62
   256
176
     0
 40
1.0
176
     0
 90
        2
176
     1
  1
strokes_ogs.tif
176
     1
290
     0
176
     1
 40
1.0
176
     1
 40
1.0
176
     1
  0
VISUALSTYLE
  5
3E
102
{ACAD_REACTORS
330
29
102
}
330
29
100
AcDbVisualStyle
  2
Shaded
 70
    27
177
     3
291
     0
 70
    58
 90
        2
176
     1
 90
        2
176
     1
 90
        1
176
     1
 90
        2
176
     1
 40
0.6
176
     1
 40
30.0
176
     1
 62
     7
420
 16777215
176
     1
 90
        0
176
     1
 90
        4
176
     1
 62
     7
176
     1
 62
   257
176
     1
 90
        1
176
     1
 90
        1
176
     1
 40
1.0
176
     1
 90
        8
176
     1
 62
   257
176
     1
 40
1.0
176
     1
 90
        1
176
     1
 90
        6
176
     1
 90
        2
176
     1
 62
     8
420
  7895160
176
     1
 90
        3
176
     1
 90
        0
176
     1
 90
        0
176
     1
290
     0
176
     1
 90
        5
176
     1
 40
0.0
176
     1
 90
        0
176
     1
290
     0
176
     1
290
     1
176
     1
290
     1
176
     1
290
     0
176
     1
290
     0
176
     1
290
     0
176
     1
290
     0
176
     1
290
     0
176
     1
290
     0
176
     1
 90
       50
176
     1
 40
0.0
176
     1
 40
1.0
176
     1
 90
        0
176
     1
 62
    18
420
        0
176
     1
 90
       50
176
     1
 90
        3
176
     1
 62
     5
420
      255
176
     1
290
     0
176
     1
 90
       50
176
     1
 90
       50
176
     1
 90
       50
176
     1
290
     0
176
     1
 90
       50
176
     1
 62
   256
176
     0
 40
1.0
176
     0
 90
        2
176
     1
  1
strokes_ogs.tif
176
     1
290
     0
176
     1
 40
1.0
176
     1
 40
1.0
176
     1
  0
VISUALSTYLE
  5
3D
102
{ACAD_REACTORS
330
29
102
}
330
29
100
AcDbVisualStyle
  2
Shaded with edges
 70
    26
177
     3
291
     0
 70
    58
 90
        2
176
     1
 90
        2
176
     1
 90
        1
176
     1
 90
        2
176
     1
 40
0.6
176
     1
 40
30.0
176
     1
 62
     7
420
 16777215
176
     1
 90
        1
176
     1
 90
        2
176
     1
 62
     7
176
     1
 62
   257
176
     1
 90
        2
176
     1
 90
        1
176
     1
 40
1.0
176
     1
 90
        8
176
     1
 62
   257
176
     1
 40
1.0
176
     1
 90
        1
176
     1
 90
        6
176
     1
 90
        2
176
     1
 62
     7
176
     1
 90
        3
176
     1
 90
        0
176
     1
 90
        0
176
     1
290
     0
176
     1
 90
        5
176
     1
 40
0.0
176
     1
 90
        0
176
     1
290
     0
176
     1
290
     1
176
     1
290
     1
176
     1
290
     0
176
     1
290
     0
176
     1
290
     0
176
     1
290
     0
176
     1
290
     0
176
     1
290
     0
176
     1
 90
       50
176
     1
 40
0.0
176
     1
 40
1.0
176
     1
 90
        0
176
     1
 62
    18
420
        0
176
     1
 90
       50
176
     1
 90
        3
176
     1
 62
     5
420
      255
176
     1
290
     0
176
     1
 90
       50
176
     1
 90
       50
176
     1
 90
       50
176
     1
290
     0
176
     1
 90
       50
176
     1
 62
   256
176
     0
 40
1.0
176
     0
 90
        2
176
     1
  1
strokes_ogs.tif
176
     1
290
     0
176
     1
 40
1.0
176
     1
 40
1.0
176
     1
  0
VISUALSTYLE
  5
3A
102
{ACAD_REACTORS
330
29
102
}
330
29
100
AcDbVisualStyle
  2
Shades of Gray
 70
    23
177
     3
291
     0
 70
    58
 90
        2
176
     1
 90
        2
176
     1
 90
        3
176
     1
 90
        0
176
     1
 40
0.6
176
     1
 40
30.0
176
     1
 62
     7
420
 16777215
176
     1
 90
        2
176
     1
 90
        2
176
     1
 62
     7
176
     1
 62
     7
176
     1
 90
        1
176
     1
 90
        1
176
     1
 40
40.0
176
     1
 90
        8
176
     1
 62
     7
176
     1
 40
1.0
176
     1
 90
        1
176
     1
 90
        6
176
     1
 90
        2
176
     1
 62
     7
176
     1
 90
        3
176
     1
 90
        0
176
     1
 90
        0
176
     1
290
     0
176
     1
 90
        1
176
     1
 40
0.0
176
     1
 90
        0
176
     1
290
     0
176
     1
290
     1
176
     1
290
     1
176
     1
290
     0
176
     1
290
     0
176
     1
290
     0
176
     1
290
     0
176
     1
290
     0
176
     1
290
     0
176
     1
 90
       50
176
     1
 40
0.0
176
     1
 40
1.0
176
     1
 90
        0
176
     1
 62
    18
420
        0
176
     1
 90
       50
176
     1
 90
        3
176
     1
 62
     5
420
      255
176
     1
290
     0
176
     1
 90
       50
176
     1
 90
       50
176
     1
 90
       50
176
     1
290
     0
176
     1
 90
       50
176
     1
 62
   256
176
     0
 40
1.0
176
     0
 90
        2
176
     1
  1
strokes_ogs.tif
176
     1
290
     0
176
     1
 40
1.0
176
     1
 40
1.0
176
     1
  0
VISUALSTYLE
  5
3B
102
{ACAD_REACTORS
330
29
102
}
330
29
100
AcDbVisualStyle
  2
Sketchy
 70
    24
177
     3
291
     0
 70
    58
 90
        1
176
     1
 90
        2
176
     1
 90
        2
176
     1
 90
        0
176
     1
 40
0.6
176
     1
 40
30.0
176
     1
 62
     7
420
 16777215
176
     1
 90
        2
176
     1
 90
        2
176
     1
 62
     7
176
     1
 62
     7
176
     1
 90
        1
176
     1
 90
        1
176
     1
 40
40.0
176
     1
 90
       11
176
     1
 62
     7
176
     1
 40
1.0
176
     1
 90
        1
176
     1
 90
        6
176
     1
 90
        2
176
     1
 62
     7
176
     1
 90
        6
176
     1
 90
        0
176
     1
 90
        0
176
     1
290
     0
176
     1
 90
        1
176
     1
 40
0.0
176
     1
 90
        0
176
     1
290
     0
176
     1
290
     1
176
     1
290
     1
176
     1
290
     0
176
     1
290
     0
176
     1
290
     0
176
     1
290
     0
176
     1
290
     0
176
     1
290
     0
176
     1
 90
       50
176
     1
 40
0.0
176
     1
 40
1.0
176
     1
 90
        0
176
     1
 62
    18
420
        0
176
     1
 90
       50
176
     1
 90
        3
176
     1
 62
     5
420
      255
176
     1
290
     0
176
     1
 90
       50
176
     1
 90
       50
176
     1
 90
       50
176
     1
290
     0
176
     1
 90
       50
176
     1
 62
   256
176
     0
 40
1.0
176
     0
 90
        2
176
     1
  1
strokes_ogs.tif
176
     1
290
     0
176
     1
 40
1.0
176
     1
 40
1.0
176
     1
  0
VISUALSTYLE
  5
36
102
{ACAD_REACTORS
330
29
102
}
330
29
100
AcDbVisualStyle
  2
Thicken
 70
    13
177
     3
291
     1
 70
    58
 90
        2
176
     1
 90
        2
176
     1
 90
        0
176
     1
 90
        0
176
     1
 40
0.6
176
     1
 40
30.0
176
     1
 62
     7
420
 16777215
176
     1
 90
        1
176
     1
 90
        4
176
     1
 62
     7
176
     1
 62
   257
176
     1
 90
        1
176
     1
 90
        1
176
     1
 40
1.0
176
     1
 90
       12
176
     1
 62
     7
176
     1
 40
1.0
176
     1
 90
        1
176
     1
 90
        6
176
     1
 90
        2
176
     1
 62
     7
176
     1
 90
        5
176
     1
 90
        0
176
     1
 90
        0
176
     1
290
     0
176
     1
 90
        1
176
     1
 40
0.0
176
     1
 90
        0
176
     1
290
     0
176
     1
290
     1
176
     1
290
     1
176
     1
290
     0
176
     1
290
     0
176
     1
290
     0
176
     1
290
     0
176
     1
290
     0
176
     1
290
     0
176
     1
 90
       50
176
     1
 40
0.0
176
     1
 40
1.0
176
     1
 90
        0
176
     1
 62
    18
420
        0
176
     1
 90
       50
176
     1
 90
        3
176
     1
 62
     5
420
      255
176
     1
290
     0
176
     1
 90
       50
176
     1
 90
       50
176
     1
 90
       50
176
     1
290
     0
176
     1
 90
       50
176
     1
 62
   256
176
     0
 40
1.0
176
     0
 90
        2
176
     1
  1
strokes_ogs.tif
176
     1
290
     0
176
     1
 40
1.0
176
     1
 40
1.0
176
     1
  0
VISUALSTYLE
  5
30
102
{ACAD_REACTORS
330
29
102
}
330
29
100
AcDbVisualStyle
  2
Wireframe
 70
     5
177
     3
291
     0
 70
    58
 90
        0
176
     1
 90
        2
176
     1
 90
        0
176
     1
 90
        0
176
     1
 40
0.6
176
     1
 40
30.0
176
     1
 62
     7
420
 16777215
176
     1
 90
        1
176
     1
 90
        4
176
     1
 62
     7
176
     1
 62
   257
176
     1
 90
        1
176
     1
 90
        1
176
     1
 40
1.0
176
     1
 90
        0
176
     1
 62
   257
176
     1
 40
1.0
176
     1
 90
        1
176
     1
 90
        6
176
     1
 90
        2
176
     1
 62
     7
176
     1
 90
        3
176
     1
 90
        0
176
     1
 90
        0
176
     1
290
     0
176
     1
 90
        1
176
     1
 40
0.0
176
     1
 90
        0
176
     1
290
     0
176
     1
290
     1
176
     1
290
     1
176
     1
290
     0
176
     1
290
     0
176
     1
290
     0
176
     1
290
     0
176
     1
290
     0
176
     1
290
     0
176
     1
 90
       50
176
     1
 40
0.0
176
     1
 40
1.0
176
     1
 90
        0
176
     1
 62
    18
420
        0
176
     1
 90
       50
176
     1
 90
        3
176
     1
 62
     5
420
      255
176
     1
290
     0
176
     1
 90
       50
176
     1
 90
       50
176
     1
 90
       50
176
     1
290
     0
176
     1
 90
       50
176
     1
 62
   256
176
     0
 40
1.0
176
     0
 90
        2
176
     1
  1
strokes_ogs.tif
176
     1
290
     0
176
     1
 40
1.0
176
     1
 40
1.0
176
     1
  0
VISUALSTYLE
  5
3C
102
{ACAD_REACTORS
330
29
102
}
330
29
100
AcDbVisualStyle
  2
X-Ray
 70
    25
177
     3
291
     0
 70
    58
 90
        2
176
     1
 90
        2
176
     1
 90
        1
176
     1
 90
        1
176
     1
 40
0.5
176
     1
 40
30.0
176
     1
 62
     7
420
 16777215
176
     1
 90
        1
176
     1
 90
        0
176
     1
 62
     7
176
     1
 62
   257
176
     1
 90
        1
176
     1
 90
        1
176
     1
 40
1.0
176
     1
 90
        8
176
     1
 62
     7
176
     1
 40
1.0
176
     1
 90
        1
176
     1
 90
        6
176
     1
 90
        2
176
     1
 62
     7
176
     1
 90
        3
176
     1
 90
        0
176
     1
 90
        0
176
     1
290
     0
176
     1
 90
       13
176
     1
 40
0.0
176
     1
 90
        0
176
     1
290
     0
176
     1
290
     1
176
     1
290
     1
176
     1
290
     0
176
     1
290
     0
176
     1
290
     0
176
     1
290
     0
176
     1
290
     0
176
     1
290
     0
176
     1
 90
       50
176
     1
 40
0.0
176
     1
 40
1.0
176
     1
 90
        0
176
     1
 62
    18
420
        0
176
     1
 90
       50
176
     1
 90
        3
176
     1
 62
     5
420
      255
176
     1
290
     0
176
     1
 90
       50
176
     1
 90
       50
176
     1
 90
       50
176
     1
290
     0
176
     1
 90
       50
176
     1
 62
   256
176
     0
 40
1.0
176
     0
 90
        2
176
     1
  1
strokes_ogs.tif
176
     1
290
     0
176
     1
 40
1.0
176
     1
 40
1.0
176
     1
  0
DICTIONARYVAR
  5
A5
102
{ACAD_REACTORS
330
A0
102
}
330
A0
100
DictionaryVariables
280
     0
  1
1:1
  0
DICTIONARYVAR
  5
A2
102
{ACAD_REACTORS
330
A0
102
}
330
A0
100
DictionaryVariables
280
     0
  1
STANDARD
  0
DICTIONARYVAR
  5
A1
102
{ACAD_REACTORS
330
A0
102
}
330
A0
100
DictionaryVariables
280
     0
  1
STANDARD
  0
DICTIONARYVAR
  5
A3
102
{ACAD_REACTORS
330
A0
102
}
330
A0
100
DictionaryVariables
280
     0
  1
Imperial24
  0
DICTIONARYVAR
  5
A4
102
{ACAD_REACTORS
330
A0
102
}
330
A0
100
DictionaryVariables
280
     0
  1
Imperial24
  0
DICTIONARY
  5
1A
330
19
100
AcDbDictionary
280
     1
281
     1
  3
BUMPTILE
360
1C
  3
DIFFUSETILE
360
1B
  3
OPACITYTILE
360
1F
  3
REFLECTIONTILE
360
1E
  3
REFRACTIONTILE
360
20
  3
SPECULARTILE
360
1D
  0
DICTIONARY
  5
12
330
11
100
AcDbDictionary
280
     1
281
     1
  3
BUMPTILE
360
14
  3
DIFFUSETILE
360
13
  3
OPACITYTILE
360
17
  3
REFLECTIONTILE
360
16
  3
REFRACTIONTILE
360
18
  3
SPECULARTILE
360
15
  0
DICTIONARY
  5
22
330
21
100
AcDbDictionary
280
     1
281
     1
  3
BUMPTILE
360
24
  3
DIFFUSETILE
360
23
  3
OPACITYTILE
360
27
  3
REFLECTIONTILE
360
26
  3
REFRACTIONTILE
360
28
  3
SPECULARTILE
360
25
  0
DICTIONARY
  5
A6
330
65
100
AcDbDictionary
280
     1
281
     1
  3
ACAD_ROUNDTRIP_2008_TABLESTYLE_CELLSTYLEMAP
360
A7
  0
XRECORD
  5
1C
102
{ACAD_REACTORS
330
1A
102
}
330
1A
100
AcDbXrecord
280
     1
270
     1
271
     1
  0
XRECORD
  5
1B
102
{ACAD_REACTORS
330
1A
102
}
330
1A
100
AcDbXrecord
280
     1
270
     1
271
     1
  0
XRECORD
  5
1F
102
{ACAD_REACTORS
330
1A
102
}
330
1A
100
AcDbXrecord
280
     1
270
     1
271
     1
  0
XRECORD
  5
1E
102
{ACAD_REACTORS
330
1A
102
}
330
1A
100
AcDbXrecord
280
     1
270
     1
271
     1
  0
XRECORD
  5
20
102
{ACAD_REACTORS
330
1A
102
}
330
1A
100
AcDbXrecord
280
     1
270
     1
271
     1
  0
XRECORD
  5
1D
102
{ACAD_REACTORS
330
1A
102
}
330
1A
100
AcDbXrecord
280
     1
270
     1
271
     1
  0
XRECORD
  5
14
102
{ACAD_REACTORS
330
12
102
}
330
12
100
AcDbXrecord
280
     1
270
     1
271
     1
  0
XRECORD
  5
13
102
{ACAD_REACTORS
330
12
102
}
330
12
100
AcDbXrecord
280
     1
270
     1
271
     1
  0
XRECORD
  5
17
102
{ACAD_REACTORS
330
12
102
}
330
12
100
AcDbXrecord
280
     1
270
     1
271
     1
  0
XRECORD
  5
16
102
{ACAD_REACTORS
330
12
102
}
330
12
100
AcDbXrecord
280
     1
270
     1
271
     1
  0
XRECORD
  5
18
102
{ACAD_REACTORS
330
12
102
}
330
12
100
AcDbXrecord
280
     1
270
     1
271
     1
  0
XRECORD
  5
15
102
{ACAD_REACTORS
330
12
102
}
330
12
100
AcDbXrecord
280
     1
270
     1
271
     1
  0
XRECORD
  5
24
102
{ACAD_REACTORS
330
22
102
}
330
22
100
AcDbXrecord
280
     1
270
     1
271
     1
  0
XRECORD
  5
23
102
{ACAD_REACTORS
330
22
102
}
330
22
100
AcDbXrecord
280
     1
270
     1
271
     1
  0
XRECORD
  5
27
102
{ACAD_REACTORS
330
22
102
}
330
22
100
AcDbXrecord
280
     1
270
     1
271
     1
  0
XRECORD
  5
26
102
{ACAD_REACTORS
330
22
102
}
330
22
100
AcDbXrecord
280
     1
270
     1
271
     1
  0
XRECORD
  5
28
102
{ACAD_REACTORS
330
22
102
}
330
22
100
AcDbXrecord
280
     1
270
     1
271
     1
  0
XRECORD
  5
25
102
{ACAD_REACTORS
330
22
102
}
330
22
100
AcDbXrecord
280
     1
270
     1
271
     1
  0
CELLSTYLEMAP
  5
A7
102
{ACAD_REACTORS
330
A6
102
}
330
A6
100
AcDbCellStyleMap
 90
        3
300
CELLSTYLE
  1
TABLEFORMAT_BEGIN
 90
        5
170
     1
 91
        0
 92
    32768
 62
   257
 93
        1
300
CONTENTFORMAT
  1
CONTENTFORMAT_BEGIN
 90
        0
 91
        0
 92
      512
 93
        0
300

 40
0.0
140
1.0
 94
        5
 62
     0
340
55
144
0.25
309
CONTENTFORMAT_END
171
     0
 94
        0
309
TABLEFORMAT_END
  1
CELLSTYLE_BEGIN
 90
        1
 91
        1
300
_TITLE
309
CELLSTYLE_END
300
CELLSTYLE
  1
TABLEFORMAT_BEGIN
 90
        5
170
     1
 91
        0
 92
        0
 62
   257
 93
        1
300
CONTENTFORMAT
  1
CONTENTFORMAT_BEGIN
 90
        0
 91
        0
 92
      512
 93
        0
300

 40
0.0
140
1.0
 94
        5
 62
     0
340
55
144
0.18
309
CONTENTFORMAT_END
171
     0
 94
        0
309
TABLEFORMAT_END
  1
CELLSTYLE_BEGIN
 90
        2
 91
        1
300
_HEADER
309
CELLSTYLE_END
300
CELLSTYLE
  1
TABLEFORMAT_BEGIN
 90
        5
170
     1
 91
        0
 92
        0
 62
   257
 93
        1
300
CONTENTFORMAT
  1
CONTENTFORMAT_BEGIN
 90
        0
 91
        0
 92
      512
 93
        0
300

 40
0.0
140
1.0
 94
        2
 62
     0
340
55
144
0.18
309
CONTENTFORMAT_END
171
     0
 94
        0
309
TABLEFORMAT_END
  1
CELLSTYLE_BEGIN
 90
        3
 91
        2
300
_DATA
309
CELLSTYLE_END
  0
ENDSEC
  0
EOF
